<svg width="278" height="278" viewBox="0 0 278 278" fill="none" xmlns="http://www.w3.org/2000/svg">
<g clip-path="url(#clip0_8410_4979)">
<circle cx="139" cy="139" r="136.5" fill="#F4E346" stroke="#8F8445" stroke-width="5"/>
<path d="M65.8207 147.656C66.3607 144.346 66.3307 141.026 65.9707 137.696C65.7107 135.346 64.9707 135.716 63.9707 134.5C61.4707 133.5 65.0307 134.83 63.4707 133.5C62.3759 132.559 63.1049 130.4 62.9007 128.636C61.0607 112.896 61.9207 97.0856 61.7507 81.3056C61.6907 75.3056 63.3407 69.6656 65.0307 63.8656C66.5007 58.8056 69.1307 54.5756 71.4107 50.1656C73.2807 46.5456 77.6407 44.3656 79.7607 40.6556C82.6707 35.5656 88.1807 33.9556 92.4807 30.8256C102.931 23.2056 114.711 18.4556 127.591 16.5556C138.331 14.9756 148.551 16.9656 158.851 20.0056C169.661 23.1956 180.011 27.5356 189.591 33.1156C194.511 35.9756 200.371 39.0456 202.941 45.1756C204.231 48.2456 206.411 50.7456 208.771 53.1156C215.421 59.7756 216.961 68.5156 217.491 77.2656C218.121 87.5456 217.801 97.8956 217.831 108.216C217.831 109.086 218.261 110.646 216.931 110.616C215.791 110.596 216.311 108.986 215.951 108.146C213.901 103.356 213.621 97.8856 211.361 93.4056C209.971 90.6456 207.301 87.4756 204.011 86.0156C201.681 84.9756 200.181 83.5356 199.161 81.3356C198.601 80.1356 197.791 79.0356 197.271 77.8156C194.111 70.4656 188.761 66.3956 180.601 65.8256C175.621 65.4756 170.701 64.5856 167.301 60.0956C166.221 58.6656 164.351 58.2556 162.361 58.1756C159.351 58.0556 156.591 57.6856 153.711 55.6156C151.051 53.7056 146.771 53.5356 143.201 55.0556C138.331 57.1256 133.441 56.9256 128.191 56.8756C121.231 56.8156 113.791 56.1056 107.161 60.4956C104.511 62.2456 100.431 61.4556 97.1907 63.0456C95.3307 63.9656 93.6307 64.6656 92.7707 66.7156C92.3907 67.6056 91.8207 68.6156 91.0407 69.1056C83.9907 73.6056 82.0007 80.9456 80.1407 88.3556C79.8007 89.6956 79.3207 90.8656 78.3107 91.8156C72.9307 96.9156 72.6707 104.046 71.5107 110.576C71.0107 113.396 71.0907 116.366 70.1207 119.226C69.5407 120.926 69.4807 122.816 69.3107 124.636C69.2307 125.436 69.3107 126.436 70.2707 126.736C71.4807 127.106 72.1107 126.186 72.5407 125.276C73.6207 122.996 74.4607 120.526 74.3507 118.056C74.1007 112.476 78.3707 108.796 80.0007 103.996C80.8807 101.396 83.9307 100.366 87.7107 100.326C93.6107 100.266 98.7107 102.196 104.041 103.776C108.221 105.016 112.381 106.156 116.791 105.866C118.501 105.756 120.091 105.966 121.621 106.776C124.011 108.036 126.271 110.226 125.391 112.566C124.731 114.326 122.811 117.036 119.611 116.446C119.001 116.336 117.921 116.376 117.771 116.686C117.251 117.786 118.531 117.876 119.061 118.386C120.981 120.226 123.791 120.946 124.891 123.936C125.591 125.826 125.581 127.106 124.291 128.406C123.141 129.566 121.391 130.346 123.651 132.226C124.461 132.906 123.201 133.596 122.471 133.906C120.931 134.566 119.341 135.286 117.711 134.246C116.781 133.656 116.321 132.716 117.001 131.696C117.861 130.386 118.641 129.106 117.661 127.576C116.941 126.446 116.081 125.186 114.621 125.316C113.351 125.426 113.701 126.876 113.431 127.756C112.491 130.776 110.571 132.656 107.351 132.796C104.231 132.936 102.581 130.956 101.391 128.326C100.921 127.296 101.461 125.006 99.4007 125.616C97.6707 126.136 95.1707 126.896 95.7407 129.506C96.3707 132.416 95.0407 132.276 93.1007 131.716C92.3007 131.486 91.4107 131.316 90.7707 130.836C89.5207 129.886 86.7907 130.846 86.8707 128.576C86.9407 126.376 87.2607 123.976 89.4707 122.406C92.1207 120.526 94.9707 119.316 98.1907 118.926C100.671 118.626 103.161 118.386 105.621 117.946C106.611 117.766 108.371 118.466 108.391 116.736C108.401 115.776 106.941 115.426 105.971 115.346C100.511 114.906 95.0407 114.136 89.6207 115.656C88.6707 115.926 87.7007 116.246 86.7307 116.306C80.0807 116.776 76.3107 119.636 74.8007 125.986C74.0407 129.206 72.5807 132.286 72.7407 135.716C72.8207 137.396 73.1607 139.146 70.1507 138.056C68.4107 137.426 68.4807 139.646 68.3307 140.866C68.0107 143.306 68.3907 145.986 65.7507 147.506L65.8607 147.626L65.8207 147.656Z" fill="#382900"/>
<path d="M63.0711 146.091C65.3711 156.671 68.1211 167.161 69.4811 177.941C70.0511 182.471 72.8811 187.101 75.9611 188.661C79.0111 190.211 80.2611 193.451 83.5311 194.371C85.9111 195.041 85.2511 198.231 86.6111 199.691C90.4511 203.771 93.2511 208.251 94.1111 213.881C94.2911 215.051 94.3011 217.681 96.6611 215.071C97.7611 213.861 97.9411 214.971 97.8611 215.891C97.8011 216.541 97.4911 217.191 97.5211 217.831C97.7711 223.711 97.9411 223.891 104.101 223.461C106.631 223.281 107.161 224.711 107.401 226.781C108.081 232.501 109.881 234.491 115.791 235.461C117.571 235.751 116.711 236.771 116.981 237.501C117.631 239.251 117.481 242.071 120.671 239.231C121.831 238.201 124.501 237.971 125.511 240.511C125.991 241.721 127.321 242.021 127.901 242.841C130.311 246.261 131.081 244.851 131.571 241.831C131.731 240.831 132.021 239.451 133.071 239.601C134.681 239.831 134.201 241.321 133.951 242.431C133.731 243.401 133.471 244.361 133.161 245.291C132.911 246.051 132.211 246.881 133.181 247.501C133.891 247.951 134.371 247.241 134.811 246.741C136.351 244.991 136.601 247.051 137.301 247.631C138.091 248.271 138.921 249.141 139.901 248.801C140.981 248.441 140.501 247.011 141.011 246.211C141.621 245.231 139.811 243.001 141.281 243.451C143.501 244.131 145.081 240.901 147.191 243.151C150.101 246.271 152.281 244.221 155.591 242.841C161.171 240.521 163.521 235.401 167.821 232.161C170.361 230.241 172.291 227.631 174.961 225.671C176.501 224.541 176.421 220.651 177.331 218.041C178.061 215.951 178.361 213.941 180.981 213.241C182.791 212.761 182.941 210.731 183.691 209.281C184.591 207.551 184.561 207.701 186.411 209.161C187.301 209.861 188.781 210.591 189.691 210.301C191.291 209.801 190.141 208.441 189.921 207.361C189.541 205.481 190.141 203.751 191.101 202.151C191.661 201.221 192.511 200.581 193.591 201.071C194.761 201.601 194.001 202.421 193.681 203.151C193.421 203.731 193.331 204.951 193.971 204.631C196.201 203.511 198.171 206.561 200.601 204.511C202.821 202.641 203.391 200.061 204.841 197.901C205.201 197.371 205.541 196.831 205.891 196.301C205.931 196.941 206.101 197.611 206.001 198.231C204.711 206.001 202.141 213.371 198.761 220.441C194.571 229.221 189.011 237.131 181.841 243.671C175.981 249.021 169.361 253.521 161.981 256.631C157.421 258.551 152.721 260.191 147.991 261.651C139.971 264.121 132.191 262.281 124.621 259.561C120.571 258.101 116.891 255.281 112.761 254.421C100.441 251.861 93.6911 242.601 85.8511 234.171C80.7811 228.721 76.5711 223.111 73.8311 216.231C70.4511 207.751 68.4311 199.031 67.5111 189.941C66.3411 178.421 64.6811 166.941 63.0911 155.461C62.8511 153.701 61.8611 152.041 61.2111 150.341C60.4211 148.271 62.0211 147.351 63.1611 146.201L63.0511 146.081L63.0711 146.091ZM187.501 217.141C187.291 216.331 188.121 214.901 186.891 214.711C185.961 214.571 185.611 216.031 185.291 216.911C184.901 217.971 184.671 219.111 184.521 220.231C184.391 221.251 184.691 222.461 185.751 222.631C187.301 222.881 186.851 221.461 186.981 220.591C187.141 219.461 187.321 218.321 187.501 217.141Z" fill="#382900"/>
<path d="M175.421 198.531C173.381 197.421 171.181 194.151 170.001 199.531C169.461 201.981 164.091 203.931 161.451 203.361C160.791 203.221 159.711 202.801 159.911 202.421C161.871 198.621 158.761 199.601 157.041 199.221C156.541 199.111 155.681 199.681 155.641 198.621C155.641 198.541 156.531 198.401 157.011 198.351C159.811 198.011 162.631 197.791 165.411 197.321C166.481 197.141 167.901 196.771 168.001 195.391C168.081 194.311 166.911 193.861 166.061 193.351C161.311 190.511 156.481 189.091 150.651 189.051C138.941 188.961 127.211 188.611 115.501 188.741C111.861 188.781 108.231 191.311 104.651 192.811C103.601 193.251 102.741 194.131 101.731 194.691C101.041 195.071 100.251 195.721 99.4409 195.221C98.4109 194.591 98.5409 193.411 98.8509 192.521C100.131 188.821 101.901 185.281 105.971 184.141C109.011 183.291 112.581 182.721 114.671 180.841C118.611 177.311 123.221 178.911 127.401 177.801C133.011 176.311 136.361 179.171 136.851 185.091C136.911 185.781 136.841 186.501 137.611 186.691C138.411 186.891 138.941 186.291 138.851 185.591C138.561 183.431 138.741 181.201 141.131 180.751C144.791 180.061 148.741 176.731 152.071 179.281C156.931 183.001 162.911 183.061 168.061 185.691C173.981 188.721 177.401 191.291 175.271 198.671L175.401 198.531H175.421Z" fill="#382900"/>
<path d="M165.851 101.521C170.671 102.831 174.881 99.7211 179.491 99.5011C185.391 99.2111 195.651 105.671 197.451 111.051C198.451 114.051 197.031 115.801 193.981 114.661C185.351 111.451 176.551 111.501 167.531 111.851C163.861 111.991 160.141 111.341 156.371 111.971C153.991 112.371 152.751 111.181 153.441 108.331C154.421 104.271 156.701 101.891 160.851 101.531C162.501 101.391 164.181 101.511 165.841 101.511L165.851 101.521Z" fill="#382900"/>
<path d="M168.531 115.841C172.471 116.251 177.351 116.661 181.761 118.561C183.851 119.461 188.281 120.191 185.401 124.611C190.081 130.651 183.391 128.141 181.791 129.111C180.551 129.851 179.301 129.271 179.821 127.121C180.391 124.751 178.151 124.181 176.651 123.311C175.411 122.591 174.451 122.761 174.401 124.541C174.301 128.381 172.091 130.281 168.451 130.521C164.931 130.751 162.871 128.921 162.061 125.541C161.841 124.611 161.571 123.341 160.201 123.871C158.521 124.531 156.851 126.571 158.041 127.631C160.781 130.071 156.051 131.831 157.981 134.081C158.431 134.611 157.211 134.271 156.811 133.971C153.501 131.451 153.641 127.021 151.291 123.911C150.701 123.131 152.191 121.931 153.051 121.161C157.211 117.431 162.191 115.931 168.541 115.831L168.531 115.841Z" fill="#382900"/>
<path d="M150.221 219.801C149.611 221.291 148.511 221.771 147.441 222.151C144.501 223.201 141.311 223.461 138.571 225.201C138.031 225.551 136.931 225.291 136.191 225.021C133.091 223.891 130.081 222.541 126.811 221.901C125.711 221.681 124.301 221.131 124.311 219.831C124.331 218.101 126.041 218.061 127.291 217.871C128.591 217.671 129.941 217.611 131.241 217.741C136.671 218.311 142.111 218.711 147.571 218.611C148.671 218.591 149.861 218.561 150.211 219.801H150.221Z" fill="#382900"/>
<path d="M112.451 195.401C113.441 195.401 114.611 195.051 115.371 195.471C117.621 196.681 120.261 195.921 122.471 197.091C120.741 199.111 118.271 197.581 116.221 198.391C113.801 199.351 113.771 200.201 115.661 201.741C116.351 202.301 117.291 202.811 117.351 203.921C116.381 203.821 115.421 203.681 114.451 203.641C111.981 203.541 110.091 202.231 108.351 200.691C107.241 199.711 106.001 198.561 106.571 196.911C107.101 195.401 108.681 195.561 109.981 195.491C110.801 195.451 111.631 195.491 112.461 195.491V195.411L112.451 195.401Z" fill="#382900"/>
<path d="M130.951 169.281C130.861 169.591 130.841 170.101 130.691 170.141C128.131 170.841 125.591 171.691 122.981 172.011C122.131 172.111 120.901 170.681 121.241 169.421C121.861 167.071 124.001 166.741 125.971 166.761C127.931 166.791 129.941 167.171 130.951 169.281V169.281Z" fill="#382900"/>
<path d="M150.692 166.921C152.052 167.031 154.011 166.801 153.991 168.371C153.961 171.131 151.001 170.301 149.401 171.051C147.941 171.741 146.762 170.051 146.852 168.841C147.032 166.451 149.382 167.471 150.692 166.921Z" fill="#382900"/>
<path d="M175.291 198.671C176.671 197.911 177.531 198.421 177.841 199.841C178.091 201.021 177.841 202.261 177.071 203.131C176.331 203.961 175.991 203.061 175.891 202.451C175.681 201.151 175.571 199.831 175.421 198.531L175.291 198.671V198.671Z" fill="#382900"/>
<path d="M137.531 236.241C137.031 236.261 136.411 236.181 136.431 235.651C136.481 234.491 137.611 234.201 138.401 233.721C138.941 233.391 139.311 233.851 139.341 234.371C139.411 235.611 138.581 236.061 137.531 236.241Z" fill="#382900"/>
</g>
<defs>
<clipPath id="clip0_8410_4979">
<rect width="278" height="278" fill="white"/>
</clipPath>
</defs>
</svg>
