<svg width="468" height="285" viewBox="0 0 468 285" fill="none" xmlns="http://www.w3.org/2000/svg">
<g clip-path="url(#clip0_8408_4939)">
<mask id="path-3-inside-1_8408_4939" fill="white">
<path d="M0 0H468V85H0V0Z"/>
</mask>
<path d="M0 0H468V85H0V0Z" fill="white"/>
<rect x="20" y="20" width="12" height="12" rx="6" fill="white" stroke="#1879B9" stroke-width="6"/>
<path d="M57.68 25.524H57.61L56.84 27.106L54.698 31.012L52.556 27.106L51.786 25.524H51.716V33H50.204V23.228H52.08L54.698 28.198H54.782L57.4 23.228H59.192V33H57.68V25.524ZM66.6283 33C66.227 33 65.919 32.888 65.7043 32.664C65.4897 32.4307 65.359 32.1367 65.3123 31.782H65.2423C65.1023 32.2393 64.8457 32.5847 64.4723 32.818C64.099 33.0513 63.6463 33.168 63.1143 33.168C62.3583 33.168 61.775 32.972 61.3643 32.58C60.963 32.188 60.7623 31.6607 60.7623 30.998C60.7623 30.27 61.0237 29.724 61.5463 29.36C62.0783 28.996 62.853 28.814 63.8703 28.814H65.1863V28.198C65.1863 27.75 65.065 27.4047 64.8223 27.162C64.5797 26.9193 64.2017 26.798 63.6883 26.798C63.259 26.798 62.909 26.8913 62.6383 27.078C62.3677 27.2647 62.139 27.5027 61.9523 27.792L61.0423 26.966C61.285 26.5553 61.6257 26.2193 62.0643 25.958C62.503 25.6873 63.077 25.552 63.7863 25.552C64.729 25.552 65.4523 25.7713 65.9563 26.21C66.4603 26.6487 66.7123 27.2787 66.7123 28.1V31.754H67.4823V33H66.6283ZM63.5483 32.006C64.0243 32.006 64.4163 31.9033 64.7243 31.698C65.0323 31.4833 65.1863 31.1987 65.1863 30.844V29.794H63.8983C62.8437 29.794 62.3163 30.1207 62.3163 30.774V31.026C62.3163 31.3527 62.4237 31.6 62.6383 31.768C62.8623 31.9267 63.1657 32.006 63.5483 32.006ZM73.1879 31.796H73.1319C73.0666 31.9733 72.9779 32.146 72.8659 32.314C72.7633 32.482 72.6279 32.6313 72.4599 32.762C72.3013 32.8833 72.1053 32.9813 71.8719 33.056C71.6479 33.1307 71.3866 33.168 71.0879 33.168C70.3319 33.168 69.7439 32.9253 69.3239 32.44C68.9133 31.9547 68.7079 31.2593 68.7079 30.354V25.72H70.2339V30.158C70.2339 31.2873 70.7006 31.852 71.6339 31.852C71.8299 31.852 72.0213 31.8287 72.2079 31.782C72.3946 31.726 72.5579 31.6467 72.6979 31.544C72.8473 31.4413 72.9639 31.3107 73.0479 31.152C73.1413 30.9933 73.1879 30.8067 73.1879 30.592V25.72H74.7139V33H73.1879V31.796ZM76.811 33V23.228H81.011C81.9164 23.228 82.6164 23.494 83.111 24.026C83.6057 24.558 83.853 25.272 83.853 26.168C83.853 27.064 83.6057 27.778 83.111 28.31C82.6164 28.842 81.9164 29.108 81.011 29.108H78.393V33H76.811ZM78.393 27.722H80.913C81.3144 27.722 81.627 27.6193 81.851 27.414C82.075 27.1993 82.187 26.896 82.187 26.504V25.832C82.187 25.44 82.075 25.1413 81.851 24.936C81.627 24.7213 81.3144 24.614 80.913 24.614H78.393V27.722ZM90.4463 33C90.045 33 89.737 32.888 89.5223 32.664C89.3076 32.4307 89.177 32.1367 89.1303 31.782H89.0603C88.9203 32.2393 88.6636 32.5847 88.2903 32.818C87.917 33.0513 87.4643 33.168 86.9323 33.168C86.1763 33.168 85.593 32.972 85.1823 32.58C84.781 32.188 84.5803 31.6607 84.5803 30.998C84.5803 30.27 84.8416 29.724 85.3643 29.36C85.8963 28.996 86.671 28.814 87.6883 28.814H89.0043V28.198C89.0043 27.75 88.883 27.4047 88.6403 27.162C88.3976 26.9193 88.0196 26.798 87.5063 26.798C87.077 26.798 86.727 26.8913 86.4563 27.078C86.1856 27.2647 85.957 27.5027 85.7703 27.792L84.8603 26.966C85.103 26.5553 85.4436 26.2193 85.8823 25.958C86.321 25.6873 86.895 25.552 87.6043 25.552C88.547 25.552 89.2703 25.7713 89.7743 26.21C90.2783 26.6487 90.5303 27.2787 90.5303 28.1V31.754H91.3003V33H90.4463ZM87.3663 32.006C87.8423 32.006 88.2343 31.9033 88.5423 31.698C88.8503 31.4833 89.0043 31.1987 89.0043 30.844V29.794H87.7163C86.6616 29.794 86.1343 30.1207 86.1343 30.774V31.026C86.1343 31.3527 86.2416 31.6 86.4563 31.768C86.6803 31.9267 86.9836 32.006 87.3663 32.006ZM96.9662 25.72H98.4362L95.3702 34.442C95.2862 34.6847 95.1882 34.89 95.0762 35.058C94.9735 35.2353 94.8475 35.3753 94.6982 35.478C94.5582 35.59 94.3855 35.6693 94.1802 35.716C93.9749 35.772 93.7322 35.8 93.4522 35.8H92.5702V34.554H93.8022L94.2222 33.322L91.5762 25.72H93.1022L94.5582 30.004L94.9782 31.586H95.0482L95.5102 30.004L96.9662 25.72Z" fill="#333333"/>
<g clip-path="url(#clip1_8408_4939)">
<circle cx="61" cy="56" r="11.5" fill="#F4E346" stroke="#8F8445"/>
<path d="M54.6824 56.7473C54.729 56.4615 54.7264 56.1749 54.6954 55.8874C54.6729 55.6846 54.609 55.7165 54.5227 55.6116C54.3069 55.5252 54.6142 55.6401 54.4795 55.5252C54.385 55.444 54.4479 55.2576 54.4303 55.1053C54.2715 53.7464 54.3457 52.3815 54.331 51.0192C54.3259 50.5013 54.4683 50.0143 54.6142 49.5136C54.7411 49.0768 54.9682 48.7116 55.165 48.3309C55.3264 48.0184 55.7028 47.8302 55.8859 47.5099C56.1371 47.0705 56.6128 46.9315 56.984 46.6613C57.8861 46.0034 58.9031 45.5933 60.0151 45.4293C60.9423 45.2929 61.8246 45.4647 62.7138 45.7272C63.647 46.0025 64.5405 46.3772 65.3676 46.859C65.7923 47.1059 66.2982 47.3709 66.5201 47.9001C66.6315 48.1651 66.8197 48.381 67.0234 48.5856C67.5975 49.1605 67.7305 49.9151 67.7762 50.6705C67.8306 51.5579 67.803 52.4515 67.8056 53.3424C67.8056 53.4175 67.8427 53.5522 67.7279 53.5496C67.6295 53.5479 67.6743 53.4089 67.6433 53.3364C67.4663 52.9228 67.4421 52.4506 67.247 52.0638C67.127 51.8256 66.8965 51.5519 66.6125 51.4259C66.4113 51.3361 66.2818 51.2118 66.1938 51.0218C66.1454 50.9182 66.0755 50.8233 66.0306 50.7179C65.7578 50.0834 65.2959 49.732 64.5915 49.6828C64.1615 49.6526 63.7368 49.5758 63.4433 49.1882C63.35 49.0647 63.1886 49.0293 63.0168 49.0224C62.7569 49.012 62.5187 48.9801 62.27 48.8014C62.0404 48.6365 61.6709 48.6218 61.3627 48.7531C60.9423 48.9318 60.5201 48.9145 60.0669 48.9102C59.466 48.905 58.8237 48.8437 58.2513 49.2227C58.0225 49.3738 57.6703 49.3056 57.3906 49.4428C57.23 49.5223 57.0833 49.5827 57.009 49.7597C56.9762 49.8365 56.927 49.9237 56.8597 49.966C56.251 50.3545 56.0792 50.9882 55.9187 51.6279C55.8893 51.7436 55.8479 51.8446 55.7607 51.9266C55.2962 52.3669 55.2738 52.9824 55.1736 53.5461C55.1305 53.7896 55.1374 54.046 55.0536 54.2929C55.0036 54.4397 54.9984 54.6028 54.9837 54.76C54.9768 54.829 54.9837 54.9154 55.0666 54.9413C55.171 54.9732 55.2254 54.8938 55.2625 54.8152C55.3558 54.6184 55.4283 54.4051 55.4188 54.1919C55.3972 53.7102 55.7659 53.3925 55.9066 52.9781C55.9825 52.7536 56.2459 52.6647 56.5722 52.6613C57.0815 52.6561 57.5218 52.8227 57.982 52.9591C58.3428 53.0661 58.702 53.1646 59.0827 53.1395C59.2303 53.13 59.3676 53.1482 59.4997 53.2181C59.706 53.3269 59.9011 53.5159 59.8251 53.7179C59.7682 53.8699 59.6024 54.1038 59.3261 54.0529C59.2735 54.0434 59.1802 54.0469 59.1673 54.0736C59.1224 54.1686 59.2329 54.1764 59.2787 54.2204C59.4444 54.3792 59.687 54.4414 59.782 54.6995C59.8424 54.8627 59.8415 54.9732 59.7302 55.0854C59.6309 55.1856 59.4798 55.2529 59.6749 55.4152C59.7448 55.4739 59.6361 55.5335 59.573 55.5602C59.4401 55.6172 59.3028 55.6794 59.1621 55.5896C59.0818 55.5387 59.0421 55.4575 59.1008 55.3695C59.1751 55.2564 59.2424 55.1459 59.1578 55.0138C59.0956 54.9162 59.0214 54.8074 58.8954 54.8187C58.7857 54.8282 58.8159 54.9533 58.7926 55.0293C58.7115 55.29 58.5457 55.4523 58.2677 55.4644C57.9984 55.4765 57.8559 55.3056 57.7532 55.0785C57.7126 54.9896 57.7592 54.7919 57.5814 54.8446C57.432 54.8895 57.2162 54.9551 57.2654 55.1804C57.3198 55.4316 57.205 55.4195 57.0375 55.3712C56.9684 55.3513 56.8916 55.3366 56.8364 55.2952C56.7284 55.2132 56.4928 55.2961 56.4997 55.1001C56.5057 54.9102 56.5333 54.703 56.7241 54.5674C56.9529 54.4051 57.1989 54.3007 57.4769 54.267C57.691 54.2411 57.906 54.2204 58.1184 54.1824C58.2038 54.1669 58.3558 54.2273 58.3575 54.0779C58.3584 53.9951 58.2323 53.9649 58.1486 53.9579C57.6772 53.92 57.205 53.8535 56.7371 53.9847C56.6551 54.008 56.5713 54.0356 56.4876 54.0408C55.9135 54.0814 55.588 54.3283 55.4577 54.8765C55.392 55.1545 55.266 55.4204 55.2798 55.7165C55.2867 55.8615 55.3161 56.0126 55.0562 55.9185C54.906 55.8641 54.912 56.0558 54.8991 56.1611C54.8715 56.3718 54.9043 56.6031 54.6764 56.7343L54.6859 56.7447L54.6824 56.7473Z" fill="#382900"/>
<path d="M54.4454 56.6122C54.644 57.5256 54.8814 58.4312 54.9988 59.3618C55.048 59.7529 55.2923 60.1526 55.5582 60.2873C55.8215 60.4211 55.9294 60.7008 56.2117 60.7802C56.4172 60.8381 56.3602 61.1135 56.4776 61.2395C56.8091 61.5918 57.0509 61.9785 57.1251 62.4646C57.1407 62.5656 57.1415 62.7926 57.3453 62.5673C57.4402 62.4628 57.4558 62.5587 57.4489 62.6381C57.4437 62.6942 57.4169 62.7503 57.4195 62.8056C57.4411 63.3132 57.4558 63.3287 57.9876 63.2916C58.206 63.2761 58.2517 63.3995 58.2725 63.5782C58.3312 64.072 58.4866 64.2438 58.9968 64.3276C59.1504 64.3526 59.0762 64.4407 59.0995 64.5037C59.1556 64.6548 59.1427 64.8982 59.4181 64.6531C59.5182 64.5641 59.7487 64.5443 59.8359 64.7636C59.8773 64.868 59.9922 64.8939 60.0422 64.9647C60.2503 65.26 60.3168 65.1382 60.3591 64.8775C60.3729 64.7912 60.3979 64.672 60.4886 64.685C60.6276 64.7049 60.5861 64.8335 60.5645 64.9293C60.5455 65.0131 60.5231 65.0959 60.4963 65.1762C60.4748 65.2418 60.4143 65.3135 60.4981 65.367C60.5594 65.4059 60.6008 65.3446 60.6388 65.3014C60.7717 65.1503 60.7933 65.3282 60.8537 65.3782C60.9219 65.4335 60.9936 65.5086 61.0782 65.4792C61.1714 65.4482 61.13 65.3247 61.174 65.2556C61.2267 65.171 61.0704 64.9785 61.1973 65.0174C61.389 65.0761 61.5254 64.7972 61.7076 64.9915C61.9588 65.2608 62.147 65.0838 62.4327 64.9647C62.9145 64.7644 63.1173 64.3224 63.4886 64.0427C63.7078 63.8769 63.8745 63.6516 64.105 63.4824C64.2379 63.3849 64.231 63.049 64.3096 62.8237C64.3726 62.6433 64.3985 62.4697 64.6247 62.4093C64.7809 62.3679 64.7939 62.1926 64.8586 62.0674C64.9363 61.9181 64.9337 61.931 65.0935 62.0571C65.1703 62.1175 65.2981 62.1805 65.3766 62.1555C65.5148 62.1123 65.4155 61.9949 65.3965 61.9017C65.3637 61.7394 65.4155 61.59 65.4984 61.4519C65.5467 61.3716 65.6201 61.3164 65.7133 61.3587C65.8143 61.4044 65.7487 61.4752 65.7211 61.5382C65.6986 61.5883 65.6909 61.6936 65.7461 61.666C65.9386 61.5693 66.1087 61.8326 66.3185 61.6556C66.5102 61.4942 66.5594 61.2715 66.6845 61.085C66.7156 61.0392 66.745 60.9926 66.7752 60.9469C66.7786 61.0021 66.7933 61.06 66.7847 61.1135C66.6733 61.7843 66.4514 62.4205 66.1596 63.0309C65.7979 63.7889 65.3179 64.4718 64.6989 65.0364C64.193 65.4982 63.6215 65.8867 62.9844 66.1552C62.5907 66.321 62.185 66.4626 61.7766 66.5886C61.0843 66.8018 60.4126 66.643 59.7591 66.4082C59.4094 66.2821 59.0917 66.0387 58.7352 65.9644C57.6716 65.7434 57.0889 64.944 56.412 64.2162C55.9743 63.7457 55.6109 63.2614 55.3743 62.6674C55.0825 61.9354 54.9081 61.1826 54.8287 60.3978C54.7277 59.4033 54.5844 58.4122 54.4471 57.4211C54.4264 57.2692 54.3409 57.1259 54.2848 56.9791C54.2166 56.8004 54.3548 56.721 54.4532 56.6217L54.4437 56.6113L54.4454 56.6122ZM65.1876 62.746C65.1694 62.6761 65.2411 62.5526 65.1349 62.5362C65.0546 62.5241 65.0244 62.6502 64.9968 62.7261C64.9631 62.8177 64.9432 62.9161 64.9303 63.0128C64.9191 63.1008 64.945 63.2053 65.0365 63.22C65.1703 63.2415 65.1314 63.119 65.1427 63.0438C65.1565 62.9463 65.172 62.8479 65.1876 62.746Z" fill="#382900"/>
<path d="M64.1443 61.1394C63.9681 61.0436 63.7782 60.7613 63.6763 61.2258C63.6297 61.4373 63.1661 61.6056 62.9382 61.5564C62.8812 61.5443 62.788 61.5081 62.8053 61.4753C62.9745 61.1472 62.706 61.2318 62.5575 61.199C62.5143 61.1895 62.4401 61.2387 62.4366 61.1472C62.4366 61.1403 62.5135 61.1282 62.5549 61.1239C62.7966 61.0945 63.0401 61.0755 63.2801 61.035C63.3725 61.0194 63.4951 60.9875 63.5037 60.8683C63.5106 60.7751 63.4096 60.7363 63.3362 60.6922C62.9261 60.4471 62.5092 60.3245 62.0058 60.321C60.9949 60.3132 59.9822 60.283 58.9713 60.2942C58.6571 60.2977 58.3437 60.5161 58.0346 60.6456C57.944 60.6836 57.8697 60.7596 57.7825 60.8079C57.723 60.8407 57.6548 60.8968 57.5848 60.8537C57.4959 60.7993 57.5071 60.6974 57.5339 60.6206C57.6444 60.3012 57.7972 59.9955 58.1486 59.8971C58.411 59.8237 58.7192 59.7745 58.8997 59.6122C59.2398 59.3075 59.6378 59.4456 59.9986 59.3498C60.483 59.2212 60.7722 59.4681 60.8145 59.9791C60.8197 60.0387 60.8136 60.1009 60.8801 60.1173C60.9491 60.1345 60.9949 60.0827 60.9871 60.0223C60.9621 59.8358 60.9776 59.6433 61.184 59.6045C61.4999 59.5449 61.841 59.2574 62.1284 59.4776C62.548 59.7987 63.0643 59.8039 63.5089 60.0309C64.0199 60.2925 64.3152 60.5144 64.1313 61.1515L64.1425 61.1394H64.1443Z" fill="#382900"/>
<path d="M63.3182 52.7646C63.7343 52.8777 64.0978 52.6092 64.4958 52.5902C65.0051 52.5651 65.8909 53.1228 66.0463 53.5873C66.1326 53.8463 66.01 53.9974 65.7467 53.8989C65.0017 53.6218 64.242 53.6261 63.4633 53.6564C63.1464 53.6684 62.8253 53.6123 62.4998 53.6667C62.2943 53.7012 62.1873 53.5985 62.2469 53.3525C62.3315 53.002 62.5283 52.7965 62.8866 52.7654C63.029 52.7533 63.174 52.7637 63.3174 52.7637L63.3182 52.7646Z" fill="#382900"/>
<path d="M63.5498 54.0006C63.8899 54.036 64.3112 54.0714 64.6919 54.2354C64.8724 54.3131 65.2548 54.3762 65.0062 54.7577C65.4102 55.2792 64.8326 55.0625 64.6945 55.1462C64.5875 55.2101 64.4796 55.16 64.5244 54.9744C64.5737 54.7698 64.3803 54.7206 64.2508 54.6455C64.1437 54.5834 64.0608 54.598 64.0565 54.7517C64.0479 55.0832 63.8571 55.2472 63.5429 55.268C63.239 55.2878 63.0611 55.1298 62.9912 54.838C62.9722 54.7577 62.9489 54.6481 62.8306 54.6939C62.6856 54.7508 62.5414 54.927 62.6442 55.0185C62.8807 55.2291 62.4724 55.3811 62.639 55.5753C62.6778 55.6211 62.5725 55.5917 62.538 55.5658C62.2522 55.3482 62.2643 54.9658 62.0614 54.6973C62.0105 54.63 62.1391 54.5264 62.2134 54.4599C62.5725 54.1379 63.0024 54.0084 63.5506 53.9998L63.5498 54.0006Z" fill="#382900"/>
<path d="M61.9693 62.9758C61.9166 63.1044 61.8216 63.1459 61.7293 63.1787C61.4754 63.2693 61.2001 63.2918 60.9635 63.442C60.9169 63.4722 60.8219 63.4497 60.758 63.4264C60.4904 63.3289 60.2306 63.2123 59.9483 63.1571C59.8533 63.1381 59.7316 63.0906 59.7324 62.9784C59.7342 62.829 59.8818 62.8256 59.9897 62.8092C60.1019 62.7919 60.2185 62.7867 60.3307 62.7979C60.7995 62.8471 61.2691 62.8817 61.7405 62.873C61.8354 62.8713 61.9382 62.8687 61.9684 62.9758H61.9693Z" fill="#382900"/>
<path d="M58.7085 60.8692C58.7939 60.8692 58.895 60.839 58.9606 60.8753C59.1548 60.9797 59.3827 60.9141 59.5735 61.0151C59.4242 61.1895 59.2109 61.0574 59.0339 61.1274C58.825 61.2102 58.8224 61.2836 58.9856 61.4166C59.0452 61.4649 59.1263 61.5089 59.1315 61.6048C59.0478 61.5961 58.9649 61.584 58.8811 61.5806C58.6679 61.572 58.5047 61.4589 58.3545 61.3259C58.2587 61.2413 58.1516 61.142 58.2009 60.9996C58.2466 60.8692 58.383 60.883 58.4952 60.877C58.566 60.8735 58.6377 60.877 58.7093 60.877V60.8701L58.7085 60.8692Z" fill="#382900"/>
<path d="M60.3052 58.6144C60.2974 58.6411 60.2957 58.6851 60.2827 58.6886C60.0617 58.749 59.8425 58.8224 59.6171 58.85C59.5438 58.8587 59.4376 58.7352 59.4669 58.6264C59.5204 58.4236 59.7052 58.3951 59.8753 58.3968C60.0445 58.3994 60.218 58.4322 60.3052 58.6144V58.6144Z" fill="#382900"/>
<path d="M62.0097 58.4104C62.1271 58.4199 62.2963 58.4 62.2946 58.5356C62.292 58.7739 62.0364 58.7022 61.8983 58.7669C61.7723 58.8265 61.6704 58.6806 61.6782 58.5762C61.6937 58.3698 61.8966 58.4579 62.0097 58.4104Z" fill="#382900"/>
<path d="M64.1338 61.1514C64.2529 61.0858 64.3272 61.1298 64.3539 61.2524C64.3755 61.3543 64.3539 61.4614 64.2875 61.5365C64.2236 61.6081 64.1942 61.5304 64.1856 61.4778C64.1675 61.3655 64.158 61.2516 64.145 61.1393L64.1338 61.1514V61.1514Z" fill="#382900"/>
<path d="M60.8733 64.3949C60.8302 64.3966 60.7766 64.3897 60.7784 64.3439C60.7827 64.2438 60.8802 64.2188 60.9484 64.1773C60.9951 64.1488 61.027 64.1886 61.0296 64.2334C61.0356 64.3405 60.964 64.3793 60.8733 64.3949Z" fill="#382900"/>
</g>
<rect x="243" y="17.5" width="17" height="17" rx="8.5" fill="white" stroke="#D9D9D9"/>
<path d="M279.372 33.168C278.093 33.168 277.09 32.7387 276.362 31.88C275.634 31.012 275.27 29.7567 275.27 28.114C275.27 27.2927 275.363 26.5693 275.55 25.944C275.737 25.3187 276.007 24.7913 276.362 24.362C276.717 23.9327 277.146 23.6107 277.65 23.396C278.163 23.172 278.737 23.06 279.372 23.06C280.221 23.06 280.931 23.2467 281.5 23.62C282.079 23.9933 282.531 24.544 282.858 25.272L281.528 26C281.36 25.5333 281.099 25.1647 280.744 24.894C280.399 24.614 279.941 24.474 279.372 24.474C278.616 24.474 278.023 24.7307 277.594 25.244C277.165 25.7573 276.95 26.4667 276.95 27.372V28.856C276.95 29.7613 277.165 30.4707 277.594 30.984C278.023 31.4973 278.616 31.754 279.372 31.754C279.96 31.754 280.436 31.6047 280.8 31.306C281.173 30.998 281.449 30.606 281.626 30.13L282.9 30.9C282.573 31.6093 282.116 32.1647 281.528 32.566C280.94 32.9673 280.221 33.168 279.372 33.168ZM289.599 33C289.198 33 288.89 32.888 288.675 32.664C288.46 32.4307 288.33 32.1367 288.283 31.782H288.213C288.073 32.2393 287.816 32.5847 287.443 32.818C287.07 33.0513 286.617 33.168 286.085 33.168C285.329 33.168 284.746 32.972 284.335 32.58C283.934 32.188 283.733 31.6607 283.733 30.998C283.733 30.27 283.994 29.724 284.517 29.36C285.049 28.996 285.824 28.814 286.841 28.814H288.157V28.198C288.157 27.75 288.036 27.4047 287.793 27.162C287.55 26.9193 287.172 26.798 286.659 26.798C286.23 26.798 285.88 26.8913 285.609 27.078C285.338 27.2647 285.11 27.5027 284.923 27.792L284.013 26.966C284.256 26.5553 284.596 26.2193 285.035 25.958C285.474 25.6873 286.048 25.552 286.757 25.552C287.7 25.552 288.423 25.7713 288.927 26.21C289.431 26.6487 289.683 27.2787 289.683 28.1V31.754H290.453V33H289.599ZM286.519 32.006C286.995 32.006 287.387 31.9033 287.695 31.698C288.003 31.4833 288.157 31.1987 288.157 30.844V29.794H286.869C285.814 29.794 285.287 30.1207 285.287 30.774V31.026C285.287 31.3527 285.394 31.6 285.609 31.768C285.833 31.9267 286.136 32.006 286.519 32.006ZM291.749 33V25.72H293.275V27.12H293.345C293.447 26.7467 293.662 26.42 293.989 26.14C294.315 25.86 294.768 25.72 295.347 25.72H295.753V27.19H295.151C294.544 27.19 294.077 27.288 293.751 27.484C293.433 27.68 293.275 27.9693 293.275 28.352V33H291.749ZM301.418 31.796H301.348C301.189 32.2253 300.928 32.5613 300.564 32.804C300.209 33.0467 299.789 33.168 299.304 33.168C298.38 33.168 297.666 32.8367 297.162 32.174C296.658 31.502 296.406 30.564 296.406 29.36C296.406 28.156 296.658 27.2227 297.162 26.56C297.666 25.888 298.38 25.552 299.304 25.552C299.789 25.552 300.209 25.6733 300.564 25.916C300.928 26.1493 301.189 26.4853 301.348 26.924H301.418V22.64H302.944V33H301.418V31.796ZM299.766 31.852C300.232 31.852 300.624 31.74 300.942 31.516C301.259 31.2827 301.418 30.9793 301.418 30.606V28.114C301.418 27.7407 301.259 27.442 300.942 27.218C300.624 26.9847 300.232 26.868 299.766 26.868C299.234 26.868 298.809 27.0407 298.492 27.386C298.174 27.722 298.016 28.17 298.016 28.73V29.99C298.016 30.55 298.174 31.0027 298.492 31.348C298.809 31.684 299.234 31.852 299.766 31.852Z" fill="#333333"/>
<g clip-path="url(#clip2_8408_4939)">
<path opacity="0.07" d="M309.5 44H277.5C275.8 44 274.5 45.3 274.5 47V65C274.5 66.7 275.9 68 277.5 68H309.5C311.2 68 312.5 66.7 312.5 65V47C312.5 45.3 311.1 44 309.5 44Z" fill="black"/>
<path d="M309.5 45C310.6 45 311.5 45.9 311.5 47V65C311.5 66.1 310.6 67 309.5 67H277.5C276.4 67 275.5 66.1 275.5 65V47C275.5 45.9 276.4 45 277.5 45H309.5Z" fill="white"/>
<path d="M302.8 54.1H302.5C302.1 55.1 301.8 55.6 301.5 57.1H303.4C303.1 55.6 303.1 54.9 302.8 54.1ZM305.7 60H304C303.9 60 303.9 60 303.8 59.9L303.6 59L303.5 58.8H301.1C301 58.8 300.9 58.8 300.9 59L300.6 59.9C300.6 60 300.5 60 300.5 60H298.4L298.6 59.5L301.5 52.7C301.5 52.2 301.8 52 302.3 52H303.8C303.9 52 304 52 304 52.2L305.4 58.7C305.5 59.1 305.6 59.4 305.6 59.8C305.7 59.9 305.7 59.9 305.7 60ZM292.3 59.7L292.7 57.9C292.8 57.9 292.9 58 292.9 58C293.6 58.3 294.3 58.5 295 58.4C295.2 58.4 295.5 58.3 295.7 58.2C296.2 58 296.2 57.5 295.8 57.1C295.6 56.9 295.3 56.8 295 56.6C294.6 56.4 294.2 56.2 293.9 55.9C292.7 54.9 293.1 53.5 293.8 52.8C294.4 52.4 294.7 52 295.5 52C296.7 52 298 52 298.6 52.2H298.7C298.6 52.8 298.5 53.3 298.3 53.9C297.8 53.7 297.3 53.5 296.8 53.5C296.5 53.5 296.2 53.5 295.9 53.6C295.7 53.6 295.6 53.7 295.5 53.8C295.3 54 295.3 54.3 295.5 54.5L296 54.9C296.4 55.1 296.8 55.3 297.1 55.5C297.6 55.8 298.1 56.3 298.2 56.9C298.4 57.8 298.1 58.6 297.3 59.2C296.8 59.6 296.6 59.8 295.9 59.8C294.5 59.8 293.4 59.9 292.5 59.6C292.4 59.8 292.4 59.8 292.3 59.7ZM288.8 60C288.9 59.3 288.9 59.3 289 59C289.5 56.8 290 54.5 290.4 52.3C290.5 52.1 290.5 52 290.7 52H292.5C292.3 53.2 292.1 54.1 291.8 55.2C291.5 56.7 291.2 58.2 290.8 59.7C290.8 59.9 290.7 59.9 290.5 59.9L288.8 60ZM279.5 52.2C279.5 52.1 279.7 52 279.8 52H283.2C283.7 52 284.1 52.3 284.2 52.8L285.1 57.2C285.1 57.3 285.1 57.3 285.2 57.4C285.2 57.3 285.3 57.3 285.3 57.3L287.4 52.2C287.3 52.1 287.4 52 287.5 52H289.6C289.6 52.1 289.6 52.1 289.5 52.2L286.4 59.5C286.3 59.7 286.3 59.8 286.2 59.9C286.1 60 285.9 59.9 285.7 59.9H284.2C284.1 59.9 284 59.9 284 59.7L282.4 53.5C282.2 53.3 281.9 53 281.5 52.9C280.9 52.6 279.8 52.4 279.6 52.4L279.5 52.2Z" fill="#142688"/>
</g>
<g clip-path="url(#clip3_8408_4939)">
<path opacity="0.07" d="M351.5 44H319.5C317.8 44 316.5 45.3 316.5 47V65C316.5 66.7 317.9 68 319.5 68H351.5C353.2 68 354.5 66.7 354.5 65V47C354.5 45.3 353.1 44 351.5 44Z" fill="black"/>
<path d="M351.5 45C352.6 45 353.5 45.9 353.5 47V65C353.5 66.1 352.6 67 351.5 67H319.5C318.4 67 317.5 66.1 317.5 65V47C317.5 45.9 318.4 45 319.5 45H351.5Z" fill="white"/>
<path d="M331.5 63C335.366 63 338.5 59.866 338.5 56C338.5 52.134 335.366 49 331.5 49C327.634 49 324.5 52.134 324.5 56C324.5 59.866 327.634 63 331.5 63Z" fill="#EB001B"/>
<path d="M339.5 63C343.366 63 346.5 59.866 346.5 56C346.5 52.134 343.366 49 339.5 49C335.634 49 332.5 52.134 332.5 56C332.5 59.866 335.634 63 339.5 63Z" fill="#F79E1B"/>
<path d="M338.5 56C338.5 53.6 337.3 51.5 335.5 50.3C333.7 51.6 332.5 53.7 332.5 56C332.5 58.3 333.7 60.5 335.5 61.7C337.3 60.5 338.5 58.4 338.5 56Z" fill="#FF5F00"/>
</g>
<g clip-path="url(#clip4_8408_4939)">
<path opacity="0.07" d="M393.5 44H361.5C359.8 44 358.5 45.3 358.5 47V65C358.5 66.7 359.9 68 361.5 68H393.5C395.2 68 396.5 66.7 396.5 65V47C396.5 45.3 395.1 44 393.5 44Z" fill="black"/>
<path d="M393.5 45C394.6 45 395.5 45.9 395.5 47V65C395.5 66.1 394.6 67 393.5 67H361.5C360.4 67 359.5 66.1 359.5 65V47C359.5 45.9 360.4 45 361.5 45H393.5Z" fill="#006FCF"/>
<path d="M367.471 54.268L368.245 56.144H366.703L367.471 54.268ZM383.546 54.346H380.569V55.173H383.498V56.412H380.575V57.334H383.552V58.073L385.629 55.828L383.552 53.488L383.546 54.346ZM369.483 52.006H373.478L374.365 53.941L375.187 52H385.557L386.635 53.19L387.75 52H392.513L388.994 55.852L392.477 59.68H387.643L386.565 58.49L385.44 59.68H368.53L368.036 58.49H366.906L366.411 59.68H362.5L365.786 52H369.216L369.483 52.006ZM378.146 53.084H375.907L374.407 56.62L372.782 53.084H370.56V57.894L368.5 53.084H366.507L364.125 58.596H365.68L366.174 57.406H368.77L369.264 58.596H371.984V54.661L373.735 58.602H374.925L376.665 54.673V58.603H378.123L378.147 53.083L378.146 53.084ZM387.486 55.852L390.017 53.084H388.195L386.594 54.81L385.046 53.084H379.152V58.602H384.962L386.576 56.864L388.124 58.602H389.999L387.487 55.852H387.486Z" fill="white"/>
</g>
<path d="M468 84H0V86H468V84Z" fill="#D9D9D9" mask="url(#path-3-inside-1_8408_4939)"/>
<mask id="path-33-inside-2_8408_4939" fill="white">
<path d="M0 85H468V285H0V85Z"/>
</mask>
<path d="M0 85H468V285H0V85Z" fill="#FAFAFA"/>
<rect x="17.5" y="102.5" width="433" height="45" rx="4.5" fill="white"/>
<g clip-path="url(#clip5_8408_4939)">
<path d="M36.918 122.268H36.848L36.022 123.906L33.684 128.162L31.346 123.906L30.52 122.268H30.45V130.5H29.302V120.728H30.87L33.67 125.992H33.74L36.554 120.728H38.066V130.5H36.918V122.268ZM45.6013 130.5C45.1813 130.5 44.878 130.388 44.6913 130.164C44.514 129.94 44.402 129.66 44.3553 129.324H44.2853C44.1267 129.772 43.8653 130.108 43.5013 130.332C43.1373 130.556 42.7033 130.668 42.1993 130.668C41.434 130.668 40.8367 130.472 40.4073 130.08C39.9873 129.688 39.7773 129.156 39.7773 128.484C39.7773 127.803 40.0247 127.28 40.5193 126.916C41.0233 126.552 41.8027 126.37 42.8573 126.37H44.2853V125.656C44.2853 125.143 44.1453 124.751 43.8653 124.48C43.5853 124.209 43.156 124.074 42.5773 124.074C42.1387 124.074 41.77 124.172 41.4713 124.368C41.182 124.564 40.9393 124.825 40.7433 125.152L40.0713 124.522C40.2673 124.13 40.58 123.799 41.0093 123.528C41.4387 123.248 41.98 123.108 42.6333 123.108C43.5107 123.108 44.192 123.323 44.6773 123.752C45.1627 124.181 45.4053 124.779 45.4053 125.544V129.52H46.2313V130.5H45.6013ZM42.3813 129.716C42.6613 129.716 42.918 129.683 43.1513 129.618C43.3847 129.553 43.5853 129.459 43.7533 129.338C43.9213 129.217 44.052 129.077 44.1453 128.918C44.2387 128.759 44.2853 128.587 44.2853 128.4V127.21H42.8013C42.1573 127.21 41.686 127.303 41.3873 127.49C41.098 127.677 40.9533 127.947 40.9533 128.302V128.596C40.9533 128.951 41.0793 129.226 41.3313 129.422C41.5927 129.618 41.9427 129.716 42.3813 129.716ZM52.0818 129.324H52.0258C51.9512 129.492 51.8578 129.66 51.7458 129.828C51.6432 129.987 51.5125 130.131 51.3538 130.262C51.1952 130.383 51.0038 130.481 50.7798 130.556C50.5558 130.631 50.2945 130.668 49.9958 130.668C49.2492 130.668 48.6565 130.43 48.2178 129.954C47.7792 129.469 47.5598 128.787 47.5598 127.91V123.276H48.6798V127.714C48.6798 129.011 49.2305 129.66 50.3318 129.66C50.5558 129.66 50.7705 129.632 50.9758 129.576C51.1905 129.52 51.3772 129.436 51.5358 129.324C51.7038 129.212 51.8345 129.072 51.9278 128.904C52.0305 128.727 52.0818 128.517 52.0818 128.274V123.276H53.2018V130.5H52.0818V129.324ZM55.4989 130.5V120.728H59.3909C60.2682 120.728 60.9402 120.98 61.4069 121.484C61.8829 121.979 62.1209 122.66 62.1209 123.528C62.1209 124.396 61.8829 125.082 61.4069 125.586C60.9402 126.081 60.2682 126.328 59.3909 126.328H56.6749V130.5H55.4989ZM56.6749 125.292H59.3909C59.8575 125.292 60.2169 125.171 60.4689 124.928C60.7302 124.685 60.8609 124.34 60.8609 123.892V123.164C60.8609 122.716 60.7302 122.371 60.4689 122.128C60.2169 121.885 59.8575 121.764 59.3909 121.764H56.6749V125.292ZM68.7904 130.5C68.3704 130.5 68.0671 130.388 67.8804 130.164C67.7031 129.94 67.5911 129.66 67.5444 129.324H67.4744C67.3157 129.772 67.0544 130.108 66.6904 130.332C66.3264 130.556 65.8924 130.668 65.3884 130.668C64.6231 130.668 64.0257 130.472 63.5964 130.08C63.1764 129.688 62.9664 129.156 62.9664 128.484C62.9664 127.803 63.2137 127.28 63.7084 126.916C64.2124 126.552 64.9917 126.37 66.0464 126.37H67.4744V125.656C67.4744 125.143 67.3344 124.751 67.0544 124.48C66.7744 124.209 66.3451 124.074 65.7664 124.074C65.3277 124.074 64.9591 124.172 64.6604 124.368C64.3711 124.564 64.1284 124.825 63.9324 125.152L63.2604 124.522C63.4564 124.13 63.7691 123.799 64.1984 123.528C64.6277 123.248 65.1691 123.108 65.8224 123.108C66.6997 123.108 67.3811 123.323 67.8664 123.752C68.3517 124.181 68.5944 124.779 68.5944 125.544V129.52H69.4204V130.5H68.7904ZM65.5704 129.716C65.8504 129.716 66.1071 129.683 66.3404 129.618C66.5737 129.553 66.7744 129.459 66.9424 129.338C67.1104 129.217 67.2411 129.077 67.3344 128.918C67.4277 128.759 67.4744 128.587 67.4744 128.4V127.21H65.9904C65.3464 127.21 64.8751 127.303 64.5764 127.49C64.2871 127.677 64.1424 127.947 64.1424 128.302V128.596C64.1424 128.951 64.2684 129.226 64.5204 129.422C64.7817 129.618 65.1317 129.716 65.5704 129.716ZM75.2025 123.276H76.3085L73.0745 132.18C72.9905 132.395 72.9065 132.572 72.8225 132.712C72.7385 132.861 72.6359 132.978 72.5145 133.062C72.3932 133.146 72.2392 133.207 72.0525 133.244C71.8752 133.281 71.6559 133.3 71.3945 133.3H70.8205V132.32H71.9545L72.5005 130.78L69.7985 123.276H70.9185L72.6545 128.19L72.9905 129.366H73.0605L73.4525 128.19L75.2025 123.276ZM83.3335 130.668C82.8295 130.668 82.3768 130.579 81.9755 130.402C81.5741 130.225 81.2335 129.973 80.9535 129.646C80.6828 129.319 80.4728 128.923 80.3235 128.456C80.1835 127.989 80.1135 127.467 80.1135 126.888C80.1135 126.309 80.1835 125.787 80.3235 125.32C80.4728 124.853 80.6828 124.457 80.9535 124.13C81.2335 123.803 81.5741 123.551 81.9755 123.374C82.3768 123.197 82.8295 123.108 83.3335 123.108C84.0521 123.108 84.6261 123.267 85.0555 123.584C85.4941 123.892 85.8208 124.298 86.0355 124.802L85.0975 125.278C84.9668 124.905 84.7521 124.615 84.4535 124.41C84.1548 124.205 83.7815 124.102 83.3335 124.102C82.9975 124.102 82.7035 124.158 82.4515 124.27C82.1995 124.373 81.9895 124.522 81.8215 124.718C81.6535 124.905 81.5275 125.133 81.4435 125.404C81.3595 125.665 81.3175 125.955 81.3175 126.272V127.504C81.3175 128.139 81.4855 128.661 81.8215 129.072C82.1668 129.473 82.6708 129.674 83.3335 129.674C84.2388 129.674 84.8921 129.254 85.2935 128.414L86.1055 128.96C85.8721 129.483 85.5221 129.898 85.0555 130.206C84.5981 130.514 84.0241 130.668 83.3335 130.668ZM92.7365 130.5C92.3165 130.5 92.0132 130.388 91.8265 130.164C91.6492 129.94 91.5372 129.66 91.4905 129.324H91.4205C91.2618 129.772 91.0005 130.108 90.6365 130.332C90.2725 130.556 89.8385 130.668 89.3345 130.668C88.5692 130.668 87.9718 130.472 87.5425 130.08C87.1225 129.688 86.9125 129.156 86.9125 128.484C86.9125 127.803 87.1598 127.28 87.6545 126.916C88.1585 126.552 88.9378 126.37 89.9925 126.37H91.4205V125.656C91.4205 125.143 91.2805 124.751 91.0005 124.48C90.7205 124.209 90.2912 124.074 89.7125 124.074C89.2738 124.074 88.9052 124.172 88.6065 124.368C88.3172 124.564 88.0745 124.825 87.8785 125.152L87.2065 124.522C87.4025 124.13 87.7152 123.799 88.1445 123.528C88.5738 123.248 89.1152 123.108 89.7685 123.108C90.6458 123.108 91.3272 123.323 91.8125 123.752C92.2978 124.181 92.5405 124.779 92.5405 125.544V129.52H93.3665V130.5H92.7365ZM89.5165 129.716C89.7965 129.716 90.0532 129.683 90.2865 129.618C90.5198 129.553 90.7205 129.459 90.8885 129.338C91.0565 129.217 91.1872 129.077 91.2805 128.918C91.3738 128.759 91.4205 128.587 91.4205 128.4V127.21H89.9365C89.2925 127.21 88.8212 127.303 88.5225 127.49C88.2332 127.677 88.0885 127.947 88.0885 128.302V128.596C88.0885 128.951 88.2145 129.226 88.4665 129.422C88.7278 129.618 89.0778 129.716 89.5165 129.716ZM94.765 130.5V123.276H95.885V124.606H95.955C96.0857 124.261 96.319 123.953 96.655 123.682C96.991 123.411 97.453 123.276 98.041 123.276H98.475V124.396H97.817C97.2103 124.396 96.7343 124.513 96.389 124.746C96.053 124.97 95.885 125.255 95.885 125.6V130.5H94.765ZM104.244 129.324H104.188C103.749 130.22 103.044 130.668 102.074 130.668C101.626 130.668 101.22 130.579 100.856 130.402C100.492 130.225 100.179 129.973 99.9176 129.646C99.6656 129.319 99.4696 128.923 99.3296 128.456C99.1989 127.989 99.1336 127.467 99.1336 126.888C99.1336 126.309 99.1989 125.787 99.3296 125.32C99.4696 124.853 99.6656 124.457 99.9176 124.13C100.179 123.803 100.492 123.551 100.856 123.374C101.22 123.197 101.626 123.108 102.074 123.108C102.578 123.108 103.007 123.22 103.362 123.444C103.726 123.659 104.001 123.995 104.188 124.452H104.244V120.14H105.364V130.5H104.244V129.324ZM102.382 129.66C102.634 129.66 102.872 129.627 103.096 129.562C103.329 129.497 103.53 129.403 103.698 129.282C103.866 129.151 103.996 128.997 104.09 128.82C104.192 128.633 104.244 128.423 104.244 128.19V125.502C104.244 125.306 104.192 125.124 104.09 124.956C103.996 124.779 103.866 124.629 103.698 124.508C103.53 124.387 103.329 124.293 103.096 124.228C102.872 124.153 102.634 124.116 102.382 124.116C101.747 124.116 101.248 124.317 100.884 124.718C100.52 125.11 100.338 125.628 100.338 126.272V127.504C100.338 128.148 100.52 128.671 100.884 129.072C101.248 129.464 101.747 129.66 102.382 129.66ZM110.653 130.5V123.276H111.773V124.452H111.829C112.007 124.041 112.254 123.715 112.571 123.472C112.898 123.229 113.332 123.108 113.873 123.108C114.62 123.108 115.208 123.351 115.637 123.836C116.076 124.312 116.295 124.989 116.295 125.866V130.5H115.175V126.062C115.175 124.765 114.629 124.116 113.537 124.116C113.313 124.116 113.094 124.144 112.879 124.2C112.674 124.256 112.487 124.34 112.319 124.452C112.151 124.564 112.016 124.709 111.913 124.886C111.82 125.054 111.773 125.255 111.773 125.488V130.5H110.653ZM122.862 129.324H122.806C122.732 129.492 122.638 129.66 122.526 129.828C122.424 129.987 122.293 130.131 122.134 130.262C121.976 130.383 121.784 130.481 121.56 130.556C121.336 130.631 121.075 130.668 120.776 130.668C120.03 130.668 119.437 130.43 118.998 129.954C118.56 129.469 118.34 128.787 118.34 127.91V123.276H119.46V127.714C119.46 129.011 120.011 129.66 121.112 129.66C121.336 129.66 121.551 129.632 121.756 129.576C121.971 129.52 122.158 129.436 122.316 129.324C122.484 129.212 122.615 129.072 122.708 128.904C122.811 128.727 122.862 128.517 122.862 128.274V123.276H123.982V130.5H122.862V129.324ZM126.167 130.5V123.276H127.287V124.452H127.343C127.427 124.265 127.521 124.093 127.623 123.934C127.735 123.766 127.866 123.621 128.015 123.5C128.174 123.379 128.356 123.285 128.561 123.22C128.767 123.145 129.009 123.108 129.289 123.108C129.765 123.108 130.204 123.225 130.605 123.458C131.007 123.682 131.305 124.055 131.501 124.578H131.529C131.66 124.186 131.903 123.845 132.257 123.556C132.621 123.257 133.111 123.108 133.727 123.108C134.465 123.108 135.039 123.351 135.449 123.836C135.869 124.312 136.079 124.989 136.079 125.866V130.5H134.959V126.062C134.959 125.418 134.833 124.933 134.581 124.606C134.329 124.279 133.928 124.116 133.377 124.116C133.153 124.116 132.939 124.144 132.733 124.2C132.537 124.256 132.36 124.34 132.201 124.452C132.043 124.564 131.917 124.709 131.823 124.886C131.73 125.054 131.683 125.255 131.683 125.488V130.5H130.563V126.062C130.563 125.418 130.437 124.933 130.185 124.606C129.933 124.279 129.541 124.116 129.009 124.116C128.785 124.116 128.571 124.144 128.365 124.2C128.16 124.256 127.978 124.34 127.819 124.452C127.661 124.564 127.53 124.709 127.427 124.886C127.334 125.054 127.287 125.255 127.287 125.488V130.5H126.167ZM138.19 120.14H139.31V124.452H139.366C139.553 123.995 139.823 123.659 140.178 123.444C140.542 123.22 140.976 123.108 141.48 123.108C141.928 123.108 142.334 123.197 142.698 123.374C143.062 123.551 143.37 123.803 143.622 124.13C143.883 124.457 144.079 124.853 144.21 125.32C144.35 125.787 144.42 126.309 144.42 126.888C144.42 127.467 144.35 127.989 144.21 128.456C144.079 128.923 143.883 129.319 143.622 129.646C143.37 129.973 143.062 130.225 142.698 130.402C142.334 130.579 141.928 130.668 141.48 130.668C140.5 130.668 139.795 130.22 139.366 129.324H139.31V130.5H138.19V120.14ZM141.172 129.66C141.807 129.66 142.306 129.464 142.67 129.072C143.034 128.671 143.216 128.148 143.216 127.504V126.272C143.216 125.628 143.034 125.11 142.67 124.718C142.306 124.317 141.807 124.116 141.172 124.116C140.92 124.116 140.677 124.153 140.444 124.228C140.22 124.293 140.024 124.387 139.856 124.508C139.688 124.629 139.553 124.779 139.45 124.956C139.357 125.124 139.31 125.306 139.31 125.502V128.19C139.31 128.423 139.357 128.633 139.45 128.82C139.553 128.997 139.688 129.151 139.856 129.282C140.024 129.403 140.22 129.497 140.444 129.562C140.677 129.627 140.92 129.66 141.172 129.66ZM148.827 130.668C148.332 130.668 147.884 130.579 147.483 130.402C147.091 130.225 146.75 129.973 146.461 129.646C146.181 129.31 145.962 128.913 145.803 128.456C145.654 127.989 145.579 127.467 145.579 126.888C145.579 126.319 145.654 125.801 145.803 125.334C145.962 124.867 146.181 124.471 146.461 124.144C146.75 123.808 147.091 123.551 147.483 123.374C147.884 123.197 148.332 123.108 148.827 123.108C149.312 123.108 149.746 123.197 150.129 123.374C150.512 123.551 150.838 123.799 151.109 124.116C151.38 124.424 151.585 124.793 151.725 125.222C151.874 125.651 151.949 126.123 151.949 126.636V127.168H146.755V127.504C146.755 127.812 146.802 128.101 146.895 128.372C146.998 128.633 147.138 128.862 147.315 129.058C147.502 129.254 147.726 129.408 147.987 129.52C148.258 129.632 148.561 129.688 148.897 129.688C149.354 129.688 149.751 129.581 150.087 129.366C150.432 129.151 150.698 128.843 150.885 128.442L151.683 129.016C151.45 129.511 151.086 129.912 150.591 130.22C150.096 130.519 149.508 130.668 148.827 130.668ZM148.827 124.046C148.519 124.046 148.239 124.102 147.987 124.214C147.735 124.317 147.516 124.466 147.329 124.662C147.152 124.858 147.012 125.091 146.909 125.362C146.806 125.623 146.755 125.913 146.755 126.23V126.328H150.745V126.174C150.745 125.53 150.568 125.017 150.213 124.634C149.868 124.242 149.406 124.046 148.827 124.046ZM153.595 130.5V123.276H154.715V124.606H154.785C154.915 124.261 155.149 123.953 155.485 123.682C155.821 123.411 156.283 123.276 156.871 123.276H157.305V124.396H156.647C156.04 124.396 155.564 124.513 155.219 124.746C154.883 124.97 154.715 125.255 154.715 125.6V130.5H153.595Z" fill="#737373"/>
</g>
<path d="M434.429 123.714H433.143V121.143C433.143 118.314 430.829 116 428 116C425.172 116 422.858 118.314 422.858 121.143V123.714H421.572C420.929 123.714 420.286 124.357 420.286 125V132.714C420.286 133.357 420.929 134 421.572 134H434.429C435.072 134 435.715 133.357 435.715 132.714V125C435.715 124.357 435.072 123.714 434.429 123.714ZM425.429 121.143C425.429 119.729 426.586 118.571 428 118.571C429.415 118.571 430.572 119.729 430.572 121.143V123.714H425.429V121.143Z" fill="#737373"/>
<rect x="17.5" y="102.5" width="433" height="45" rx="4.5" stroke="#D9D9D9"/>
<rect x="17.5" y="162.5" width="433" height="45" rx="4.5" fill="white"/>
<g clip-path="url(#clip6_8408_4939)">
<path d="M31.668 184.536L30.492 182.366H30.45V190.5H29.302V180.728H30.66L34.23 186.692L35.406 188.862H35.448V180.728H36.596V190.5H35.238L31.668 184.536ZM44.1384 190.5C43.7184 190.5 43.4151 190.388 43.2284 190.164C43.0511 189.94 42.9391 189.66 42.8924 189.324H42.8224C42.6638 189.772 42.4024 190.108 42.0384 190.332C41.6744 190.556 41.2404 190.668 40.7364 190.668C39.9711 190.668 39.3738 190.472 38.9444 190.08C38.5244 189.688 38.3144 189.156 38.3144 188.484C38.3144 187.803 38.5618 187.28 39.0564 186.916C39.5604 186.552 40.3398 186.37 41.3944 186.37H42.8224V185.656C42.8224 185.143 42.6824 184.751 42.4024 184.48C42.1224 184.209 41.6931 184.074 41.1144 184.074C40.6758 184.074 40.3071 184.172 40.0084 184.368C39.7191 184.564 39.4764 184.825 39.2804 185.152L38.6084 184.522C38.8044 184.13 39.1171 183.799 39.5464 183.528C39.9758 183.248 40.5171 183.108 41.1704 183.108C42.0478 183.108 42.7291 183.323 43.2144 183.752C43.6998 184.181 43.9424 184.779 43.9424 185.544V189.52H44.7684V190.5H44.1384ZM40.9184 189.716C41.1984 189.716 41.4551 189.683 41.6884 189.618C41.9218 189.553 42.1224 189.459 42.2904 189.338C42.4584 189.217 42.5891 189.077 42.6824 188.918C42.7758 188.759 42.8224 188.587 42.8224 188.4V187.21H41.3384C40.6944 187.21 40.2231 187.303 39.9244 187.49C39.6351 187.677 39.4904 187.947 39.4904 188.302V188.596C39.4904 188.951 39.6164 189.226 39.8684 189.422C40.1298 189.618 40.4798 189.716 40.9184 189.716ZM46.167 190.5V183.276H47.287V184.452H47.343C47.427 184.265 47.5203 184.093 47.623 183.934C47.735 183.766 47.8656 183.621 48.015 183.5C48.1736 183.379 48.3556 183.285 48.561 183.22C48.7663 183.145 49.009 183.108 49.289 183.108C49.765 183.108 50.2036 183.225 50.605 183.458C51.0063 183.682 51.305 184.055 51.501 184.578H51.529C51.6596 184.186 51.9023 183.845 52.257 183.556C52.621 183.257 53.111 183.108 53.727 183.108C54.4643 183.108 55.0383 183.351 55.449 183.836C55.869 184.312 56.079 184.989 56.079 185.866V190.5H54.959V186.062C54.959 185.418 54.833 184.933 54.581 184.606C54.329 184.279 53.9276 184.116 53.377 184.116C53.153 184.116 52.9383 184.144 52.733 184.2C52.537 184.256 52.3596 184.34 52.201 184.452C52.0423 184.564 51.9163 184.709 51.823 184.886C51.7296 185.054 51.683 185.255 51.683 185.488V190.5H50.563V186.062C50.563 185.418 50.437 184.933 50.185 184.606C49.933 184.279 49.541 184.116 49.009 184.116C48.785 184.116 48.5703 184.144 48.365 184.2C48.1596 184.256 47.9776 184.34 47.819 184.452C47.6603 184.564 47.5296 184.709 47.427 184.886C47.3336 185.054 47.287 185.255 47.287 185.488V190.5H46.167ZM60.9056 190.668C60.4109 190.668 59.9629 190.579 59.5616 190.402C59.1696 190.225 58.8289 189.973 58.5396 189.646C58.2596 189.31 58.0403 188.913 57.8816 188.456C57.7323 187.989 57.6576 187.467 57.6576 186.888C57.6576 186.319 57.7323 185.801 57.8816 185.334C58.0403 184.867 58.2596 184.471 58.5396 184.144C58.8289 183.808 59.1696 183.551 59.5616 183.374C59.9629 183.197 60.4109 183.108 60.9056 183.108C61.3909 183.108 61.8249 183.197 62.2076 183.374C62.5903 183.551 62.9169 183.799 63.1876 184.116C63.4583 184.424 63.6636 184.793 63.8036 185.222C63.9529 185.651 64.0276 186.123 64.0276 186.636V187.168H58.8336V187.504C58.8336 187.812 58.8803 188.101 58.9736 188.372C59.0763 188.633 59.2163 188.862 59.3936 189.058C59.5803 189.254 59.8043 189.408 60.0656 189.52C60.3363 189.632 60.6396 189.688 60.9756 189.688C61.4329 189.688 61.8296 189.581 62.1656 189.366C62.5109 189.151 62.7769 188.843 62.9636 188.442L63.7616 189.016C63.5283 189.511 63.1643 189.912 62.6696 190.22C62.1749 190.519 61.5869 190.668 60.9056 190.668ZM60.9056 184.046C60.5976 184.046 60.3176 184.102 60.0656 184.214C59.8136 184.317 59.5943 184.466 59.4076 184.662C59.2303 184.858 59.0903 185.091 58.9876 185.362C58.8849 185.623 58.8336 185.913 58.8336 186.23V186.328H62.8236V186.174C62.8236 185.53 62.6463 185.017 62.2916 184.634C61.9463 184.242 61.4843 184.046 60.9056 184.046ZM71.5118 190.668C71.0265 190.668 70.5831 190.579 70.1818 190.402C69.7805 190.225 69.4351 189.973 69.1458 189.646C68.8658 189.31 68.6465 188.913 68.4878 188.456C68.3291 187.989 68.2498 187.467 68.2498 186.888C68.2498 186.319 68.3291 185.801 68.4878 185.334C68.6465 184.867 68.8658 184.471 69.1458 184.144C69.4351 183.808 69.7805 183.551 70.1818 183.374C70.5831 183.197 71.0265 183.108 71.5118 183.108C71.9971 183.108 72.4358 183.197 72.8278 183.374C73.2291 183.551 73.5745 183.808 73.8638 184.144C74.1531 184.471 74.3771 184.867 74.5358 185.334C74.6945 185.801 74.7738 186.319 74.7738 186.888C74.7738 187.467 74.6945 187.989 74.5358 188.456C74.3771 188.913 74.1531 189.31 73.8638 189.646C73.5745 189.973 73.2291 190.225 72.8278 190.402C72.4358 190.579 71.9971 190.668 71.5118 190.668ZM71.5118 189.674C72.1185 189.674 72.6131 189.487 72.9958 189.114C73.3785 188.741 73.5698 188.171 73.5698 187.406V186.37C73.5698 185.605 73.3785 185.035 72.9958 184.662C72.6131 184.289 72.1185 184.102 71.5118 184.102C70.9051 184.102 70.4105 184.289 70.0278 184.662C69.6451 185.035 69.4538 185.605 69.4538 186.37V187.406C69.4538 188.171 69.6451 188.741 70.0278 189.114C70.4105 189.487 70.9051 189.674 71.5118 189.674ZM76.4158 190.5V183.276H77.5358V184.452H77.5918C77.7691 184.041 78.0164 183.715 78.3338 183.472C78.6604 183.229 79.0944 183.108 79.6358 183.108C80.3824 183.108 80.9704 183.351 81.3998 183.836C81.8384 184.312 82.0578 184.989 82.0578 185.866V190.5H80.9378V186.062C80.9378 184.765 80.3918 184.116 79.2998 184.116C79.0758 184.116 78.8564 184.144 78.6418 184.2C78.4364 184.256 78.2498 184.34 78.0818 184.452C77.9138 184.564 77.7784 184.709 77.6758 184.886C77.5824 185.054 77.5358 185.255 77.5358 185.488V190.5H76.4158ZM95.0094 182.268H94.9394L94.1134 183.906L91.7754 188.162L89.4374 183.906L88.6114 182.268H88.5414V190.5H87.3934V180.728H88.9614L91.7614 185.992H91.8314L94.6454 180.728H96.1574V190.5H95.0094V182.268ZM103.693 190.5C103.273 190.5 102.969 190.388 102.783 190.164C102.605 189.94 102.493 189.66 102.447 189.324H102.377C102.218 189.772 101.957 190.108 101.593 190.332C101.229 190.556 100.795 190.668 100.291 190.668C99.5254 190.668 98.9281 190.472 98.4987 190.08C98.0787 189.688 97.8687 189.156 97.8687 188.484C97.8687 187.803 98.1161 187.28 98.6107 186.916C99.1147 186.552 99.8941 186.37 100.949 186.37H102.377V185.656C102.377 185.143 102.237 184.751 101.957 184.48C101.677 184.209 101.247 184.074 100.669 184.074C100.23 184.074 99.8614 184.172 99.5627 184.368C99.2734 184.564 99.0307 184.825 98.8347 185.152L98.1627 184.522C98.3587 184.13 98.6714 183.799 99.1007 183.528C99.5301 183.248 100.071 183.108 100.725 183.108C101.602 183.108 102.283 183.323 102.769 183.752C103.254 184.181 103.497 184.779 103.497 185.544V189.52H104.323V190.5H103.693ZM100.473 189.716C100.753 189.716 101.009 189.683 101.243 189.618C101.476 189.553 101.677 189.459 101.845 189.338C102.013 189.217 102.143 189.077 102.237 188.918C102.33 188.759 102.377 188.587 102.377 188.4V187.21H100.893C100.249 187.21 99.7774 187.303 99.4787 187.49C99.1894 187.677 99.0447 187.947 99.0447 188.302V188.596C99.0447 188.951 99.1707 189.226 99.4227 189.422C99.6841 189.618 100.034 189.716 100.473 189.716ZM110.173 189.324H110.117C110.043 189.492 109.949 189.66 109.837 189.828C109.735 189.987 109.604 190.131 109.445 190.262C109.287 190.383 109.095 190.481 108.871 190.556C108.647 190.631 108.386 190.668 108.087 190.668C107.341 190.668 106.748 190.43 106.309 189.954C105.871 189.469 105.651 188.787 105.651 187.91V183.276H106.771V187.714C106.771 189.011 107.322 189.66 108.423 189.66C108.647 189.66 108.862 189.632 109.067 189.576C109.282 189.52 109.469 189.436 109.627 189.324C109.795 189.212 109.926 189.072 110.019 188.904C110.122 188.727 110.173 188.517 110.173 188.274V183.276H111.293V190.5H110.173V189.324ZM113.59 190.5V180.728H117.482C118.36 180.728 119.032 180.98 119.498 181.484C119.974 181.979 120.212 182.66 120.212 183.528C120.212 184.396 119.974 185.082 119.498 185.586C119.032 186.081 118.36 186.328 117.482 186.328H114.766V190.5H113.59ZM114.766 185.292H117.482C117.949 185.292 118.308 185.171 118.56 184.928C118.822 184.685 118.952 184.34 118.952 183.892V183.164C118.952 182.716 118.822 182.371 118.56 182.128C118.308 181.885 117.949 181.764 117.482 181.764H114.766V185.292ZM126.882 190.5C126.462 190.5 126.158 190.388 125.972 190.164C125.794 189.94 125.682 189.66 125.636 189.324H125.566C125.407 189.772 125.146 190.108 124.782 190.332C124.418 190.556 123.984 190.668 123.48 190.668C122.714 190.668 122.117 190.472 121.688 190.08C121.268 189.688 121.058 189.156 121.058 188.484C121.058 187.803 121.305 187.28 121.8 186.916C122.304 186.552 123.083 186.37 124.138 186.37H125.566V185.656C125.566 185.143 125.426 184.751 125.146 184.48C124.866 184.209 124.436 184.074 123.858 184.074C123.419 184.074 123.05 184.172 122.752 184.368C122.462 184.564 122.22 184.825 122.024 185.152L121.352 184.522C121.548 184.13 121.86 183.799 122.29 183.528C122.719 183.248 123.26 183.108 123.914 183.108C124.791 183.108 125.472 183.323 125.958 183.752C126.443 184.181 126.686 184.779 126.686 185.544V189.52H127.512V190.5H126.882ZM123.662 189.716C123.942 189.716 124.198 189.683 124.432 189.618C124.665 189.553 124.866 189.459 125.034 189.338C125.202 189.217 125.332 189.077 125.426 188.918C125.519 188.759 125.566 188.587 125.566 188.4V187.21H124.082C123.438 187.21 122.966 187.303 122.668 187.49C122.378 187.677 122.234 187.947 122.234 188.302V188.596C122.234 188.951 122.36 189.226 122.612 189.422C122.873 189.618 123.223 189.716 123.662 189.716ZM133.294 183.276H134.4L131.166 192.18C131.082 192.395 130.998 192.572 130.914 192.712C130.83 192.861 130.727 192.978 130.606 193.062C130.485 193.146 130.331 193.207 130.144 193.244C129.967 193.281 129.747 193.3 129.486 193.3H128.912V192.32H130.046L130.592 190.78L127.89 183.276H129.01L130.746 188.19L131.082 189.366H131.152L131.544 188.19L133.294 183.276ZM141.425 190.668C140.921 190.668 140.468 190.579 140.067 190.402C139.666 190.225 139.325 189.973 139.045 189.646C138.774 189.319 138.564 188.923 138.415 188.456C138.275 187.989 138.205 187.467 138.205 186.888C138.205 186.309 138.275 185.787 138.415 185.32C138.564 184.853 138.774 184.457 139.045 184.13C139.325 183.803 139.666 183.551 140.067 183.374C140.468 183.197 140.921 183.108 141.425 183.108C142.144 183.108 142.718 183.267 143.147 183.584C143.586 183.892 143.912 184.298 144.127 184.802L143.189 185.278C143.058 184.905 142.844 184.615 142.545 184.41C142.246 184.205 141.873 184.102 141.425 184.102C141.089 184.102 140.795 184.158 140.543 184.27C140.291 184.373 140.081 184.522 139.913 184.718C139.745 184.905 139.619 185.133 139.535 185.404C139.451 185.665 139.409 185.955 139.409 186.272V187.504C139.409 188.139 139.577 188.661 139.913 189.072C140.258 189.473 140.762 189.674 141.425 189.674C142.33 189.674 142.984 189.254 143.385 188.414L144.197 188.96C143.964 189.483 143.614 189.898 143.147 190.206C142.69 190.514 142.116 190.668 141.425 190.668ZM150.828 190.5C150.408 190.5 150.105 190.388 149.918 190.164C149.741 189.94 149.629 189.66 149.582 189.324H149.512C149.353 189.772 149.092 190.108 148.728 190.332C148.364 190.556 147.93 190.668 147.426 190.668C146.661 190.668 146.063 190.472 145.634 190.08C145.214 189.688 145.004 189.156 145.004 188.484C145.004 187.803 145.251 187.28 145.746 186.916C146.25 186.552 147.029 186.37 148.084 186.37H149.512V185.656C149.512 185.143 149.372 184.751 149.092 184.48C148.812 184.209 148.383 184.074 147.804 184.074C147.365 184.074 146.997 184.172 146.698 184.368C146.409 184.564 146.166 184.825 145.97 185.152L145.298 184.522C145.494 184.13 145.807 183.799 146.236 183.528C146.665 183.248 147.207 183.108 147.86 183.108C148.737 183.108 149.419 183.323 149.904 183.752C150.389 184.181 150.632 184.779 150.632 185.544V189.52H151.458V190.5H150.828ZM147.608 189.716C147.888 189.716 148.145 189.683 148.378 189.618C148.611 189.553 148.812 189.459 148.98 189.338C149.148 189.217 149.279 189.077 149.372 188.918C149.465 188.759 149.512 188.587 149.512 188.4V187.21H148.028C147.384 187.21 146.913 187.303 146.614 187.49C146.325 187.677 146.18 187.947 146.18 188.302V188.596C146.18 188.951 146.306 189.226 146.558 189.422C146.819 189.618 147.169 189.716 147.608 189.716ZM152.856 190.5V183.276H153.976V184.606H154.046C154.177 184.261 154.41 183.953 154.746 183.682C155.082 183.411 155.544 183.276 156.132 183.276H156.566V184.396H155.908C155.302 184.396 154.826 184.513 154.48 184.746C154.144 184.97 153.976 185.255 153.976 185.6V190.5H152.856ZM162.335 189.324H162.279C161.84 190.22 161.136 190.668 160.165 190.668C159.717 190.668 159.311 190.579 158.947 190.402C158.583 190.225 158.27 189.973 158.009 189.646C157.757 189.319 157.561 188.923 157.421 188.456C157.29 187.989 157.225 187.467 157.225 186.888C157.225 186.309 157.29 185.787 157.421 185.32C157.561 184.853 157.757 184.457 158.009 184.13C158.27 183.803 158.583 183.551 158.947 183.374C159.311 183.197 159.717 183.108 160.165 183.108C160.669 183.108 161.098 183.22 161.453 183.444C161.817 183.659 162.092 183.995 162.279 184.452H162.335V180.14H163.455V190.5H162.335V189.324ZM160.473 189.66C160.725 189.66 160.963 189.627 161.187 189.562C161.42 189.497 161.621 189.403 161.789 189.282C161.957 189.151 162.088 188.997 162.181 188.82C162.284 188.633 162.335 188.423 162.335 188.19V185.502C162.335 185.306 162.284 185.124 162.181 184.956C162.088 184.779 161.957 184.629 161.789 184.508C161.621 184.387 161.42 184.293 161.187 184.228C160.963 184.153 160.725 184.116 160.473 184.116C159.838 184.116 159.339 184.317 158.975 184.718C158.611 185.11 158.429 185.628 158.429 186.272V187.504C158.429 188.148 158.611 188.671 158.975 189.072C159.339 189.464 159.838 189.66 160.473 189.66Z" fill="#737373"/>
</g>
<rect x="17.5" y="162.5" width="433" height="45" rx="4.5" stroke="#D9D9D9"/>
<rect x="17.5" y="222.5" width="209" height="45" rx="4.5" fill="white"/>
<g clip-path="url(#clip7_8408_4939)">
<path d="M29.302 250.5V240.728H35.266V241.764H30.478V245.04H34.986V246.076H30.478V249.464H35.266V250.5H29.302ZM36.2561 250.5L38.9301 246.86L36.3681 243.276H37.6841L39.5181 245.964H39.5601L41.4641 243.276H42.7101L40.1621 246.776L42.7661 250.5H41.4501L39.5741 247.672H39.5321L37.5021 250.5H36.2561ZM44.0478 243.276H45.1678V244.452H45.2238C45.4105 243.995 45.6811 243.659 46.0358 243.444C46.3998 243.22 46.8338 243.108 47.3378 243.108C47.7858 243.108 48.1918 243.197 48.5558 243.374C48.9198 243.551 49.2278 243.803 49.4798 244.13C49.7411 244.457 49.9371 244.853 50.0678 245.32C50.2078 245.787 50.2778 246.309 50.2778 246.888C50.2778 247.467 50.2078 247.989 50.0678 248.456C49.9371 248.923 49.7411 249.319 49.4798 249.646C49.2278 249.973 48.9198 250.225 48.5558 250.402C48.1918 250.579 47.7858 250.668 47.3378 250.668C46.3578 250.668 45.6531 250.22 45.2238 249.324H45.1678V253.3H44.0478V243.276ZM47.0298 249.66C47.6645 249.66 48.1638 249.464 48.5278 249.072C48.8918 248.671 49.0738 248.148 49.0738 247.504V246.272C49.0738 245.628 48.8918 245.11 48.5278 244.718C48.1638 244.317 47.6645 244.116 47.0298 244.116C46.7778 244.116 46.5351 244.153 46.3018 244.228C46.0778 244.293 45.8818 244.387 45.7138 244.508C45.5458 244.629 45.4105 244.779 45.3078 244.956C45.2145 245.124 45.1678 245.306 45.1678 245.502V248.19C45.1678 248.423 45.2145 248.633 45.3078 248.82C45.4105 248.997 45.5458 249.151 45.7138 249.282C45.8818 249.403 46.0778 249.497 46.3018 249.562C46.5351 249.627 46.7778 249.66 47.0298 249.66ZM52.5289 241.582C52.2862 241.582 52.1089 241.526 51.9969 241.414C51.8942 241.293 51.8429 241.139 51.8429 240.952V240.77C51.8429 240.583 51.8942 240.434 51.9969 240.322C52.1089 240.201 52.2862 240.14 52.5289 240.14C52.7716 240.14 52.9442 240.201 53.0469 240.322C53.1589 240.434 53.2149 240.583 53.2149 240.77V240.952C53.2149 241.139 53.1589 241.293 53.0469 241.414C52.9442 241.526 52.7716 241.582 52.5289 241.582ZM51.9689 243.276H53.0889V250.5H51.9689V243.276ZM55.2689 250.5V243.276H56.3889V244.606H56.4589C56.5896 244.261 56.8229 243.953 57.1589 243.682C57.4949 243.411 57.9569 243.276 58.5449 243.276H58.9789V244.396H58.3209C57.7142 244.396 57.2382 244.513 56.8929 244.746C56.5569 244.97 56.3889 245.255 56.3889 245.6V250.5H55.2689ZM65.4048 250.5C64.9848 250.5 64.6815 250.388 64.4948 250.164C64.3175 249.94 64.2055 249.66 64.1588 249.324H64.0888C63.9302 249.772 63.6688 250.108 63.3048 250.332C62.9408 250.556 62.5068 250.668 62.0028 250.668C61.2375 250.668 60.6402 250.472 60.2108 250.08C59.7908 249.688 59.5808 249.156 59.5808 248.484C59.5808 247.803 59.8282 247.28 60.3228 246.916C60.8268 246.552 61.6062 246.37 62.6608 246.37H64.0888V245.656C64.0888 245.143 63.9488 244.751 63.6688 244.48C63.3888 244.209 62.9595 244.074 62.3808 244.074C61.9422 244.074 61.5735 244.172 61.2748 244.368C60.9855 244.564 60.7428 244.825 60.5468 245.152L59.8748 244.522C60.0708 244.13 60.3835 243.799 60.8128 243.528C61.2422 243.248 61.7835 243.108 62.4368 243.108C63.3142 243.108 63.9955 243.323 64.4808 243.752C64.9662 244.181 65.2088 244.779 65.2088 245.544V249.52H66.0348V250.5H65.4048ZM62.1848 249.716C62.4648 249.716 62.7215 249.683 62.9548 249.618C63.1882 249.553 63.3888 249.459 63.5568 249.338C63.7248 249.217 63.8555 249.077 63.9488 248.918C64.0422 248.759 64.0888 248.587 64.0888 248.4V247.21H62.6048C61.9608 247.21 61.4895 247.303 61.1908 247.49C60.9015 247.677 60.7568 247.947 60.7568 248.302V248.596C60.7568 248.951 60.8828 249.226 61.1348 249.422C61.3962 249.618 61.7462 249.716 62.1848 249.716ZM69.0294 250.5C68.6374 250.5 68.3387 250.393 68.1334 250.178C67.9374 249.954 67.8394 249.665 67.8394 249.31V244.256H66.6494V243.276H67.3214C67.564 243.276 67.7274 243.229 67.8114 243.136C67.9047 243.033 67.9514 242.861 67.9514 242.618V241.274H68.9594V243.276H70.5414V244.256H68.9594V249.52H70.4294V250.5H69.0294ZM72.7016 241.582C72.4589 241.582 72.2816 241.526 72.1696 241.414C72.0669 241.293 72.0156 241.139 72.0156 240.952V240.77C72.0156 240.583 72.0669 240.434 72.1696 240.322C72.2816 240.201 72.4589 240.14 72.7016 240.14C72.9442 240.14 73.1169 240.201 73.2196 240.322C73.3316 240.434 73.3876 240.583 73.3876 240.77V240.952C73.3876 241.139 73.3316 241.293 73.2196 241.414C73.1169 241.526 72.9442 241.582 72.7016 241.582ZM72.1416 243.276H73.2616V250.5H72.1416V243.276ZM78.1716 250.668C77.6862 250.668 77.2429 250.579 76.8416 250.402C76.4402 250.225 76.0949 249.973 75.8056 249.646C75.5256 249.31 75.3062 248.913 75.1476 248.456C74.9889 247.989 74.9096 247.467 74.9096 246.888C74.9096 246.319 74.9889 245.801 75.1476 245.334C75.3062 244.867 75.5256 244.471 75.8056 244.144C76.0949 243.808 76.4402 243.551 76.8416 243.374C77.2429 243.197 77.6862 243.108 78.1716 243.108C78.6569 243.108 79.0956 243.197 79.4876 243.374C79.8889 243.551 80.2342 243.808 80.5236 244.144C80.8129 244.471 81.0369 244.867 81.1956 245.334C81.3542 245.801 81.4336 246.319 81.4336 246.888C81.4336 247.467 81.3542 247.989 81.1956 248.456C81.0369 248.913 80.8129 249.31 80.5236 249.646C80.2342 249.973 79.8889 250.225 79.4876 250.402C79.0956 250.579 78.6569 250.668 78.1716 250.668ZM78.1716 249.674C78.7782 249.674 79.2729 249.487 79.6556 249.114C80.0382 248.741 80.2296 248.171 80.2296 247.406V246.37C80.2296 245.605 80.0382 245.035 79.6556 244.662C79.2729 244.289 78.7782 244.102 78.1716 244.102C77.5649 244.102 77.0702 244.289 76.6876 244.662C76.3049 245.035 76.1136 245.605 76.1136 246.37V247.406C76.1136 248.171 76.3049 248.741 76.6876 249.114C77.0702 249.487 77.5649 249.674 78.1716 249.674ZM83.0755 250.5V243.276H84.1955V244.452H84.2515C84.4289 244.041 84.6762 243.715 84.9935 243.472C85.3202 243.229 85.7542 243.108 86.2955 243.108C87.0422 243.108 87.6302 243.351 88.0595 243.836C88.4982 244.312 88.7175 244.989 88.7175 245.866V250.5H87.5975V246.062C87.5975 244.765 87.0515 244.116 85.9595 244.116C85.7355 244.116 85.5162 244.144 85.3015 244.2C85.0962 244.256 84.9095 244.34 84.7415 244.452C84.5735 244.564 84.4382 244.709 84.3355 244.886C84.2422 245.054 84.1955 245.255 84.1955 245.488V250.5H83.0755ZM98.5612 249.324H98.5052C98.0665 250.22 97.3618 250.668 96.3912 250.668C95.9432 250.668 95.5372 250.579 95.1732 250.402C94.8092 250.225 94.4965 249.973 94.2352 249.646C93.9832 249.319 93.7872 248.923 93.6472 248.456C93.5165 247.989 93.4512 247.467 93.4512 246.888C93.4512 246.309 93.5165 245.787 93.6472 245.32C93.7872 244.853 93.9832 244.457 94.2352 244.13C94.4965 243.803 94.8092 243.551 95.1732 243.374C95.5372 243.197 95.9432 243.108 96.3912 243.108C96.8952 243.108 97.3245 243.22 97.6792 243.444C98.0432 243.659 98.3185 243.995 98.5052 244.452H98.5612V240.14H99.6812V250.5H98.5612V249.324ZM96.6992 249.66C96.9512 249.66 97.1892 249.627 97.4132 249.562C97.6465 249.497 97.8472 249.403 98.0152 249.282C98.1832 249.151 98.3138 248.997 98.4072 248.82C98.5098 248.633 98.5612 248.423 98.5612 248.19V245.502C98.5612 245.306 98.5098 245.124 98.4072 244.956C98.3138 244.779 98.1832 244.629 98.0152 244.508C97.8472 244.387 97.6465 244.293 97.4132 244.228C97.1892 244.153 96.9512 244.116 96.6992 244.116C96.0645 244.116 95.5652 244.317 95.2012 244.718C94.8372 245.11 94.6552 245.628 94.6552 246.272V247.504C94.6552 248.148 94.8372 248.671 95.2012 249.072C95.5652 249.464 96.0645 249.66 96.6992 249.66ZM107.112 250.5C106.692 250.5 106.389 250.388 106.202 250.164C106.025 249.94 105.913 249.66 105.866 249.324H105.796C105.638 249.772 105.376 250.108 105.012 250.332C104.648 250.556 104.214 250.668 103.71 250.668C102.945 250.668 102.348 250.472 101.918 250.08C101.498 249.688 101.288 249.156 101.288 248.484C101.288 247.803 101.536 247.28 102.03 246.916C102.534 246.552 103.314 246.37 104.368 246.37H105.796V245.656C105.796 245.143 105.656 244.751 105.376 244.48C105.096 244.209 104.667 244.074 104.088 244.074C103.65 244.074 103.281 244.172 102.982 244.368C102.693 244.564 102.45 244.825 102.254 245.152L101.582 244.522C101.778 244.13 102.091 243.799 102.52 243.528C102.95 243.248 103.491 243.108 104.144 243.108C105.022 243.108 105.703 243.323 106.188 243.752C106.674 244.181 106.916 244.779 106.916 245.544V249.52H107.742V250.5H107.112ZM103.892 249.716C104.172 249.716 104.429 249.683 104.662 249.618C104.896 249.553 105.096 249.459 105.264 249.338C105.432 249.217 105.563 249.077 105.656 248.918C105.75 248.759 105.796 248.587 105.796 248.4V247.21H104.312C103.668 247.21 103.197 247.303 102.898 247.49C102.609 247.677 102.464 247.947 102.464 248.302V248.596C102.464 248.951 102.59 249.226 102.842 249.422C103.104 249.618 103.454 249.716 103.892 249.716ZM110.737 250.5C110.345 250.5 110.046 250.393 109.841 250.178C109.645 249.954 109.547 249.665 109.547 249.31V244.256H108.357V243.276H109.029C109.271 243.276 109.435 243.229 109.519 243.136C109.612 243.033 109.659 242.861 109.659 242.618V241.274H110.667V243.276H112.249V244.256H110.667V249.52H112.137V250.5H110.737ZM116.51 250.668C116.016 250.668 115.568 250.579 115.166 250.402C114.774 250.225 114.434 249.973 114.144 249.646C113.864 249.31 113.645 248.913 113.486 248.456C113.337 247.989 113.262 247.467 113.262 246.888C113.262 246.319 113.337 245.801 113.486 245.334C113.645 244.867 113.864 244.471 114.144 244.144C114.434 243.808 114.774 243.551 115.166 243.374C115.568 243.197 116.016 243.108 116.51 243.108C116.996 243.108 117.43 243.197 117.812 243.374C118.195 243.551 118.522 243.799 118.792 244.116C119.063 244.424 119.268 244.793 119.408 245.222C119.558 245.651 119.632 246.123 119.632 246.636V247.168H114.438V247.504C114.438 247.812 114.485 248.101 114.578 248.372C114.681 248.633 114.821 248.862 114.998 249.058C115.185 249.254 115.409 249.408 115.67 249.52C115.941 249.632 116.244 249.688 116.58 249.688C117.038 249.688 117.434 249.581 117.77 249.366C118.116 249.151 118.382 248.843 118.568 248.442L119.366 249.016C119.133 249.511 118.769 249.912 118.274 250.22C117.78 250.519 117.192 250.668 116.51 250.668ZM116.51 244.046C116.202 244.046 115.922 244.102 115.67 244.214C115.418 244.317 115.199 244.466 115.012 244.662C114.835 244.858 114.695 245.091 114.592 245.362C114.49 245.623 114.438 245.913 114.438 246.23V246.328H118.428V246.174C118.428 245.53 118.251 245.017 117.896 244.634C117.551 244.242 117.089 244.046 116.51 244.046ZM124.358 246.132C124.358 245.46 124.424 244.811 124.554 244.186C124.685 243.561 124.862 242.982 125.086 242.45C125.32 241.909 125.59 241.419 125.898 240.98C126.206 240.541 126.538 240.168 126.892 239.86H127.956C127.564 240.215 127.21 240.616 126.892 241.064C126.584 241.512 126.318 241.988 126.094 242.492C125.88 242.996 125.712 243.509 125.59 244.032C125.469 244.555 125.408 245.059 125.408 245.544V246.748C125.408 247.243 125.469 247.751 125.59 248.274C125.712 248.797 125.884 249.31 126.108 249.814C126.332 250.318 126.598 250.794 126.906 251.242C127.224 251.69 127.574 252.082 127.956 252.418H126.892C126.547 252.129 126.22 251.765 125.912 251.326C125.604 250.887 125.334 250.397 125.1 249.856C124.876 249.315 124.694 248.731 124.554 248.106C124.424 247.471 124.358 246.813 124.358 246.132ZM136.604 242.268H136.534L135.708 243.906L133.37 248.162L131.032 243.906L130.206 242.268H130.136V250.5H128.988V240.728H130.556L133.356 245.992H133.426L136.24 240.728H137.752V250.5H136.604V242.268ZM147.765 242.268H147.695L146.869 243.906L144.531 248.162L142.193 243.906L141.367 242.268H141.297V250.5H140.149V240.728H141.717L144.517 245.992H144.587L147.401 240.728H148.913V250.5H147.765V242.268ZM153.243 252.614L156.897 240.14H157.905L154.251 252.614H153.243ZM164.927 250.5V246.636L161.567 240.728H162.911L165.515 245.432H165.557L168.161 240.728H169.505L166.103 246.594V250.5H164.927ZM173.026 250.5V246.636L169.666 240.728H171.01L173.614 245.432H173.656L176.26 240.728H177.604L174.202 246.594V250.5H173.026ZM181.384 246.132C181.384 246.813 181.314 247.471 181.174 248.106C181.044 248.731 180.862 249.315 180.628 249.856C180.404 250.397 180.138 250.887 179.83 251.326C179.522 251.765 179.196 252.129 178.85 252.418H177.786C178.169 252.082 178.514 251.69 178.822 251.242C179.14 250.794 179.41 250.318 179.634 249.814C179.858 249.31 180.031 248.797 180.152 248.274C180.274 247.751 180.334 247.243 180.334 246.748V245.544C180.334 245.059 180.274 244.555 180.152 244.032C180.031 243.509 179.858 242.996 179.634 242.492C179.42 241.988 179.154 241.512 178.836 241.064C178.528 240.616 178.178 240.215 177.786 239.86H178.85C179.205 240.168 179.536 240.541 179.844 240.98C180.152 241.419 180.418 241.909 180.642 242.45C180.876 242.982 181.058 243.561 181.188 244.186C181.319 244.811 181.384 245.46 181.384 246.132Z" fill="#737373"/>
</g>
<rect x="17.5" y="222.5" width="209" height="45" rx="4.5" stroke="#D9D9D9"/>
<rect x="17.5" y="222.5" width="209" height="45" stroke="#D9D9D9"/>
<rect x="241.5" y="222.5" width="209" height="45" rx="4.5" fill="white"/>
<g clip-path="url(#clip8_8408_4939)">
<path d="M256.046 250.668C255.253 250.668 254.576 250.519 254.016 250.22C253.456 249.912 252.98 249.492 252.588 248.96L253.456 248.232C253.801 248.689 254.184 249.039 254.604 249.282C255.024 249.515 255.519 249.632 256.088 249.632C256.788 249.632 257.32 249.464 257.684 249.128C258.057 248.792 258.244 248.344 258.244 247.784C258.244 247.317 258.104 246.958 257.824 246.706C257.544 246.454 257.082 246.253 256.438 246.104L255.64 245.922C254.744 245.717 254.058 245.409 253.582 244.998C253.115 244.578 252.882 243.99 252.882 243.234C252.882 242.805 252.961 242.422 253.12 242.086C253.279 241.75 253.498 241.47 253.778 241.246C254.067 241.022 254.408 240.854 254.8 240.742C255.201 240.621 255.64 240.56 256.116 240.56C256.853 240.56 257.483 240.695 258.006 240.966C258.538 241.237 258.986 241.633 259.35 242.156L258.468 242.8C258.197 242.427 257.871 242.133 257.488 241.918C257.105 241.703 256.629 241.596 256.06 241.596C255.435 241.596 254.94 241.731 254.576 242.002C254.221 242.263 254.044 242.66 254.044 243.192C254.044 243.659 254.193 244.013 254.492 244.256C254.8 244.489 255.262 244.676 255.878 244.816L256.676 244.998C257.637 245.213 258.333 245.539 258.762 245.978C259.191 246.417 259.406 247 259.406 247.728C259.406 248.176 259.327 248.582 259.168 248.946C259.019 249.31 258.799 249.618 258.51 249.87C258.221 250.122 257.866 250.318 257.446 250.458C257.035 250.598 256.569 250.668 256.046 250.668ZM263.841 250.668C263.346 250.668 262.898 250.579 262.497 250.402C262.105 250.225 261.764 249.973 261.475 249.646C261.195 249.31 260.975 248.913 260.817 248.456C260.667 247.989 260.593 247.467 260.593 246.888C260.593 246.319 260.667 245.801 260.817 245.334C260.975 244.867 261.195 244.471 261.475 244.144C261.764 243.808 262.105 243.551 262.497 243.374C262.898 243.197 263.346 243.108 263.841 243.108C264.326 243.108 264.76 243.197 265.143 243.374C265.525 243.551 265.852 243.799 266.123 244.116C266.393 244.424 266.599 244.793 266.739 245.222C266.888 245.651 266.963 246.123 266.963 246.636V247.168H261.769V247.504C261.769 247.812 261.815 248.101 261.909 248.372C262.011 248.633 262.151 248.862 262.329 249.058C262.515 249.254 262.739 249.408 263.001 249.52C263.271 249.632 263.575 249.688 263.911 249.688C264.368 249.688 264.765 249.581 265.101 249.366C265.446 249.151 265.712 248.843 265.899 248.442L266.697 249.016C266.463 249.511 266.099 249.912 265.605 250.22C265.11 250.519 264.522 250.668 263.841 250.668ZM263.841 244.046C263.533 244.046 263.253 244.102 263.001 244.214C262.749 244.317 262.529 244.466 262.343 244.662C262.165 244.858 262.025 245.091 261.923 245.362C261.82 245.623 261.769 245.913 261.769 246.23V246.328H265.759V246.174C265.759 245.53 265.581 245.017 265.227 244.634C264.881 244.242 264.419 244.046 263.841 244.046ZM271.296 250.668C270.792 250.668 270.34 250.579 269.938 250.402C269.537 250.225 269.196 249.973 268.916 249.646C268.646 249.319 268.436 248.923 268.286 248.456C268.146 247.989 268.076 247.467 268.076 246.888C268.076 246.309 268.146 245.787 268.286 245.32C268.436 244.853 268.646 244.457 268.916 244.13C269.196 243.803 269.537 243.551 269.938 243.374C270.34 243.197 270.792 243.108 271.296 243.108C272.015 243.108 272.589 243.267 273.018 243.584C273.457 243.892 273.784 244.298 273.998 244.802L273.06 245.278C272.93 244.905 272.715 244.615 272.416 244.41C272.118 244.205 271.744 244.102 271.296 244.102C270.96 244.102 270.666 244.158 270.414 244.27C270.162 244.373 269.952 244.522 269.784 244.718C269.616 244.905 269.49 245.133 269.406 245.404C269.322 245.665 269.28 245.955 269.28 246.272V247.504C269.28 248.139 269.448 248.661 269.784 249.072C270.13 249.473 270.634 249.674 271.296 249.674C272.202 249.674 272.855 249.254 273.256 248.414L274.068 248.96C273.835 249.483 273.485 249.898 273.018 250.206C272.561 250.514 271.987 250.668 271.296 250.668ZM279.901 249.324H279.845C279.771 249.492 279.677 249.66 279.565 249.828C279.463 249.987 279.332 250.131 279.173 250.262C279.015 250.383 278.823 250.481 278.599 250.556C278.375 250.631 278.114 250.668 277.815 250.668C277.069 250.668 276.476 250.43 276.037 249.954C275.599 249.469 275.379 248.787 275.379 247.91V243.276H276.499V247.714C276.499 249.011 277.05 249.66 278.151 249.66C278.375 249.66 278.59 249.632 278.795 249.576C279.01 249.52 279.197 249.436 279.355 249.324C279.523 249.212 279.654 249.072 279.747 248.904C279.85 248.727 279.901 248.517 279.901 248.274V243.276H281.021V250.5H279.901V249.324ZM283.206 250.5V243.276H284.326V244.606H284.396C284.527 244.261 284.76 243.953 285.096 243.682C285.432 243.411 285.894 243.276 286.482 243.276H286.916V244.396H286.258C285.652 244.396 285.176 244.513 284.83 244.746C284.494 244.97 284.326 245.255 284.326 245.6V250.5H283.206ZM288.707 241.582C288.464 241.582 288.287 241.526 288.175 241.414C288.072 241.293 288.021 241.139 288.021 240.952V240.77C288.021 240.583 288.072 240.434 288.175 240.322C288.287 240.201 288.464 240.14 288.707 240.14C288.95 240.14 289.122 240.201 289.225 240.322C289.337 240.434 289.393 240.583 289.393 240.77V240.952C289.393 241.139 289.337 241.293 289.225 241.414C289.122 241.526 288.95 241.582 288.707 241.582ZM288.147 243.276H289.267V250.5H288.147V243.276ZM293.043 250.5C292.651 250.5 292.352 250.393 292.147 250.178C291.951 249.954 291.853 249.665 291.853 249.31V244.256H290.663V243.276H291.335C291.578 243.276 291.741 243.229 291.825 243.136C291.918 243.033 291.965 242.861 291.965 242.618V241.274H292.973V243.276H294.555V244.256H292.973V249.52H294.443V250.5H293.043ZM300.607 243.276H301.713L298.479 252.18C298.395 252.395 298.311 252.572 298.227 252.712C298.143 252.861 298.041 252.978 297.919 253.062C297.798 253.146 297.644 253.207 297.457 253.244C297.28 253.281 297.061 253.3 296.799 253.3H296.225V252.32H297.359L297.905 250.78L295.203 243.276H296.323L298.059 248.19L298.395 249.366H298.465L298.857 248.19L300.607 243.276ZM308.738 250.668C308.234 250.668 307.781 250.579 307.38 250.402C306.979 250.225 306.638 249.973 306.358 249.646C306.087 249.319 305.877 248.923 305.728 248.456C305.588 247.989 305.518 247.467 305.518 246.888C305.518 246.309 305.588 245.787 305.728 245.32C305.877 244.853 306.087 244.457 306.358 244.13C306.638 243.803 306.979 243.551 307.38 243.374C307.781 243.197 308.234 243.108 308.738 243.108C309.457 243.108 310.031 243.267 310.46 243.584C310.899 243.892 311.225 244.298 311.44 244.802L310.502 245.278C310.371 244.905 310.157 244.615 309.858 244.41C309.559 244.205 309.186 244.102 308.738 244.102C308.402 244.102 308.108 244.158 307.856 244.27C307.604 244.373 307.394 244.522 307.226 244.718C307.058 244.905 306.932 245.133 306.848 245.404C306.764 245.665 306.722 245.955 306.722 246.272V247.504C306.722 248.139 306.89 248.661 307.226 249.072C307.571 249.473 308.075 249.674 308.738 249.674C309.643 249.674 310.297 249.254 310.698 248.414L311.51 248.96C311.277 249.483 310.927 249.898 310.46 250.206C310.003 250.514 309.429 250.668 308.738 250.668ZM315.539 250.668C315.054 250.668 314.61 250.579 314.209 250.402C313.808 250.225 313.462 249.973 313.173 249.646C312.893 249.31 312.674 248.913 312.515 248.456C312.356 247.989 312.277 247.467 312.277 246.888C312.277 246.319 312.356 245.801 312.515 245.334C312.674 244.867 312.893 244.471 313.173 244.144C313.462 243.808 313.808 243.551 314.209 243.374C314.61 243.197 315.054 243.108 315.539 243.108C316.024 243.108 316.463 243.197 316.855 243.374C317.256 243.551 317.602 243.808 317.891 244.144C318.18 244.471 318.404 244.867 318.563 245.334C318.722 245.801 318.801 246.319 318.801 246.888C318.801 247.467 318.722 247.989 318.563 248.456C318.404 248.913 318.18 249.31 317.891 249.646C317.602 249.973 317.256 250.225 316.855 250.402C316.463 250.579 316.024 250.668 315.539 250.668ZM315.539 249.674C316.146 249.674 316.64 249.487 317.023 249.114C317.406 248.741 317.597 248.171 317.597 247.406V246.37C317.597 245.605 317.406 245.035 317.023 244.662C316.64 244.289 316.146 244.102 315.539 244.102C314.932 244.102 314.438 244.289 314.055 244.662C313.672 245.035 313.481 245.605 313.481 246.37V247.406C313.481 248.171 313.672 248.741 314.055 249.114C314.438 249.487 314.932 249.674 315.539 249.674ZM325.063 249.324H325.007C324.568 250.22 323.864 250.668 322.893 250.668C322.445 250.668 322.039 250.579 321.675 250.402C321.311 250.225 320.998 249.973 320.737 249.646C320.485 249.319 320.289 248.923 320.149 248.456C320.018 247.989 319.953 247.467 319.953 246.888C319.953 246.309 320.018 245.787 320.149 245.32C320.289 244.853 320.485 244.457 320.737 244.13C320.998 243.803 321.311 243.551 321.675 243.374C322.039 243.197 322.445 243.108 322.893 243.108C323.397 243.108 323.826 243.22 324.181 243.444C324.545 243.659 324.82 243.995 325.007 244.452H325.063V240.14H326.183V250.5H325.063V249.324ZM323.201 249.66C323.453 249.66 323.691 249.627 323.915 249.562C324.148 249.497 324.349 249.403 324.517 249.282C324.685 249.151 324.816 248.997 324.909 248.82C325.012 248.633 325.063 248.423 325.063 248.19V245.502C325.063 245.306 325.012 245.124 324.909 244.956C324.816 244.779 324.685 244.629 324.517 244.508C324.349 244.387 324.148 244.293 323.915 244.228C323.691 244.153 323.453 244.116 323.201 244.116C322.566 244.116 322.067 244.317 321.703 244.718C321.339 245.11 321.157 245.628 321.157 246.272V247.504C321.157 248.148 321.339 248.671 321.703 249.072C322.067 249.464 322.566 249.66 323.201 249.66ZM331.08 250.668C330.586 250.668 330.138 250.579 329.736 250.402C329.344 250.225 329.004 249.973 328.714 249.646C328.434 249.31 328.215 248.913 328.056 248.456C327.907 247.989 327.832 247.467 327.832 246.888C327.832 246.319 327.907 245.801 328.056 245.334C328.215 244.867 328.434 244.471 328.714 244.144C329.004 243.808 329.344 243.551 329.736 243.374C330.138 243.197 330.586 243.108 331.08 243.108C331.566 243.108 332 243.197 332.382 243.374C332.765 243.551 333.092 243.799 333.362 244.116C333.633 244.424 333.838 244.793 333.978 245.222C334.128 245.651 334.202 246.123 334.202 246.636V247.168H329.008V247.504C329.008 247.812 329.055 248.101 329.148 248.372C329.251 248.633 329.391 248.862 329.568 249.058C329.755 249.254 329.979 249.408 330.24 249.52C330.511 249.632 330.814 249.688 331.15 249.688C331.608 249.688 332.004 249.581 332.34 249.366C332.686 249.151 332.952 248.843 333.138 248.442L333.936 249.016C333.703 249.511 333.339 249.912 332.844 250.22C332.35 250.519 331.762 250.668 331.08 250.668ZM331.08 244.046C330.772 244.046 330.492 244.102 330.24 244.214C329.988 244.317 329.769 244.466 329.582 244.662C329.405 244.858 329.265 245.091 329.162 245.362C329.06 245.623 329.008 245.913 329.008 246.23V246.328H332.998V246.174C332.998 245.53 332.821 245.017 332.466 244.634C332.121 244.242 331.659 244.046 331.08 244.046Z" fill="#737373"/>
</g>
<g clip-path="url(#clip9_8408_4939)">
<path d="M428 236C423.05 236 419 240.05 419 245C419 249.95 423.05 254 428 254C432.95 254 437 249.95 437 245C437 240.05 432.95 236 428 236ZM428.787 250.625H426.65V248.375H428.787V250.625ZM431.713 242.638C431.713 244.663 430.25 245.562 428.562 245.787L428.45 247.025H427.213L426.875 244.438L426.987 244.325C429.012 244.213 429.912 243.65 429.912 242.525C429.912 241.625 429.238 241.062 428.113 241.062C427.1 241.062 426.312 241.512 425.525 242.3L424.287 241.062C425.188 240.05 426.425 239.263 428.113 239.263C430.25 239.375 431.713 240.613 431.713 242.638Z" fill="#737373"/>
</g>
<rect x="241.5" y="222.5" width="209" height="45" rx="4.5" stroke="#D9D9D9"/>
<rect x="241.5" y="222.5" width="209" height="45" stroke="#D9D9D9"/>
<path d="M468 284H0V286H468V284Z" fill="#D9D9D9" mask="url(#path-33-inside-2_8408_4939)"/>
</g>
<rect x="0.5" y="0.5" width="467" height="284" rx="4.5" stroke="#D9D9D9"/>
<defs>
<clipPath id="clip0_8408_4939">
<rect width="468" height="285" rx="5" fill="white"/>
</clipPath>
<clipPath id="clip1_8408_4939">
<rect width="24" height="24" fill="white" transform="translate(49 44)"/>
</clipPath>
<clipPath id="clip2_8408_4939">
<rect width="38" height="24" fill="white" transform="translate(274.5 44)"/>
</clipPath>
<clipPath id="clip3_8408_4939">
<rect width="38" height="24" fill="white" transform="translate(316.5 44)"/>
</clipPath>
<clipPath id="clip4_8408_4939">
<rect width="38" height="24" fill="white" transform="translate(358.5 44)"/>
</clipPath>
<clipPath id="clip5_8408_4939">
<rect width="366" height="21" fill="white" transform="translate(28 114.5)"/>
</clipPath>
<clipPath id="clip6_8408_4939">
<rect width="412" height="21" fill="white" transform="translate(28 174.5)"/>
</clipPath>
<clipPath id="clip7_8408_4939">
<rect width="188" height="21" fill="white" transform="translate(28 234.5)"/>
</clipPath>
<clipPath id="clip8_8408_4939">
<rect width="142" height="21" fill="white" transform="translate(252 234.5)"/>
</clipPath>
<clipPath id="clip9_8408_4939">
<rect width="18" height="18" fill="white" transform="translate(419 236)"/>
</clipPath>
</defs>
</svg>
